M48
; DRILL file KiCad 10.0.1 date 2026-04-30T02:01:26
; FORMAT={-:-/ absolute / metric / decimal}
; #@! TF.CreationDate,2026-04-30T02:01:26+08:00
; #@! TF.GenerationSoftware,Kicad,Pcbnew,10.0.1
; #@! TF.FileFunction,Plated,1,4,PTH
FMAT,2
METRIC
; #@! TA.AperFunction,Plated,PTH,ViaDrill
T1C0.300
; #@! TA.AperFunction,Plated,PTH,ComponentDrill
T2C0.500
; #@! TA.AperFunction,Plated,PTH,ComponentDrill
T3C2.700
%
G90
G05
T1
X59.468Y-58.2
X59.5Y-64.808
X59.5Y-69.6
X60.516Y-64.808
X60.516Y-69.6
X60.936Y-58.2
X61.368Y-78.85
X61.5Y-62.878
X61.5Y-71.378
X61.532Y-64.808
X61.532Y-69.6
X62.452Y-58.2
X62.548Y-64.808
X62.548Y-69.6
X62.595Y-41.3
X62.884Y-78.85
X63.7Y-65.3
X63.75Y-69.05
X63.968Y-58.2
X64.111Y-41.3
X64.4Y-78.85
X65.116Y-65.85
X65.116Y-68.39
X65.468Y-58.2
X65.512Y-48.282
X65.512Y-51.382
X65.627Y-41.3
X65.9Y-78.85
X66.132Y-65.85
X66.132Y-68.39
X66.936Y-58.2
X67.127Y-41.3
X67.164Y-65.858
X67.164Y-68.398
X67.368Y-78.85
X68.18Y-65.858
X68.18Y-68.398
X68.452Y-58.2
X68.595Y-41.3
X68.884Y-78.85
X69.196Y-65.858
X69.196Y-68.398
X69.335Y-49.25
X69.335Y-50.52
X69.968Y-58.2
X70.111Y-41.3
X70.4Y-78.85
X71.468Y-58.2
X71.627Y-41.3
X71.9Y-78.85
X71.99Y-67.128
X71.99Y-68.398
X72.35Y-65.9
X72.936Y-58.2
X73.127Y-41.3
X73.35Y-54.7
X73.368Y-78.85
X74.318Y-48.187
X74.452Y-58.2
X74.53Y-65.858
X74.53Y-68.398
X74.55Y-50.65
X74.595Y-41.3
X74.884Y-78.85
X75.292Y-64.334
X75.546Y-65.858
X75.546Y-68.398
X75.968Y-58.2
X76.111Y-41.3
X76.4Y-78.85
X76.562Y-65.858
X76.562Y-68.398
X77.1Y-61.15
X77.118Y-54.687
X77.578Y-65.858
X77.627Y-41.3
X77.8Y-68.95
X78.0Y-78.85
X78.1Y-58.2
X79.07Y-68.95
X79.227Y-41.3
X79.356Y-65.858
X79.356Y-67.378
X79.468Y-78.85
X79.568Y-58.2
X80.34Y-68.95
X80.372Y-65.858
X80.695Y-41.3
X80.984Y-78.85
X81.084Y-58.2
X81.388Y-65.858
X81.388Y-68.652
X82.211Y-41.3
X82.5Y-78.85
X82.6Y-58.2
X82.658Y-68.652
X83.727Y-41.3
X83.9Y-68.65
X83.95Y-66.112
X84.0Y-78.85
X84.1Y-58.2
X84.436Y-64.588
X84.966Y-66.112
X85.05Y-68.65
X85.227Y-41.3
X85.468Y-78.85
X85.568Y-58.2
X85.982Y-66.112
X86.202Y-68.648
X86.695Y-41.3
X86.984Y-78.85
X87.08Y-66.1
X87.084Y-58.2
X87.27Y-68.656
X88.148Y-66.108
X88.211Y-41.3
X88.286Y-68.656
X88.5Y-78.85
X88.6Y-58.2
X89.164Y-66.108
X89.302Y-68.656
X89.727Y-41.3
X90.0Y-78.85
X90.1Y-58.2
X90.18Y-66.108
X90.318Y-68.656
X91.185Y-49.535
X91.227Y-41.3
X91.35Y-66.1
X91.45Y-68.65
X91.55Y-78.85
X91.568Y-58.2
X92.285Y-47.487
X92.95Y-65.2
X93.0Y-69.05
X93.066Y-78.85
X93.2Y-58.2
X93.966Y-65.2
X94.016Y-69.05
X94.582Y-78.85
X94.6Y-62.878
X94.6Y-71.378
X94.668Y-58.2
X94.982Y-65.2
X95.032Y-69.05
X95.985Y-46.435
X95.985Y-51.385
X95.998Y-65.2
X96.048Y-69.05
X96.184Y-58.2
T3
X69.0Y-44.5
X69.0Y-75.5
X89.0Y-44.5
X89.0Y-75.5
T2
G00X60.184Y-45.482
M15
G01X59.484Y-45.482
M16
G05
G00X60.184Y-54.122
M15
G01X59.484Y-54.122
M16
G05
G00X63.984Y-45.482
M15
G01X63.284Y-45.482
M16
G05
G00X63.984Y-54.122
M15
G01X63.284Y-54.122
M16
G05
M30
