%TF.GenerationSoftware,KiCad,Pcbnew,10.0.1*%
%TF.CreationDate,2026-04-30T02:01:38+08:00*%
%TF.ProjectId,pre_filter,7072655f-6669-46c7-9465-722e6b696361,rev?*%
%TF.SameCoordinates,Original*%
%TF.FileFunction,Copper,L4,Bot*%
%TF.FilePolarity,Positive*%
%FSLAX46Y46*%
G04 Gerber Fmt 4.6, Leading zero omitted, Abs format (unit mm)*
G04 Created by KiCad (PCBNEW 10.0.1) date 2026-04-30 02:01:38*
%MOMM*%
%LPD*%
G01*
G04 APERTURE LIST*
%TA.AperFunction,ComponentPad*%
%ADD10C,3.100000*%
%TD*%
%TA.AperFunction,ConnectorPad*%
%ADD11C,4.700000*%
%TD*%
%TA.AperFunction,ComponentPad*%
%ADD12O,1.700000X1.000000*%
%TD*%
%TA.AperFunction,SMDPad,CuDef*%
%ADD13R,5.080000X1.500000*%
%TD*%
%TA.AperFunction,ViaPad*%
%ADD14C,0.500000*%
%TD*%
%TA.AperFunction,ViaPad*%
%ADD15C,0.600000*%
%TD*%
G04 APERTURE END LIST*
D10*
%TO.P,H4,1,1_1*%
%TO.N,GND*%
X89000000Y-75500000D03*
D11*
X89000000Y-75500000D03*
%TD*%
D12*
%TO.P,J3,SH,SHIELD_SH*%
%TO.N,GND*%
X63634000Y-45482000D03*
X59834000Y-45482000D03*
X63634000Y-54122000D03*
X59834000Y-54122000D03*
%TD*%
D13*
%TO.P,J1,2,Ext_2*%
%TO.N,GND*%
X61500000Y-71378000D03*
X61500000Y-62878000D03*
%TD*%
%TO.P,J2,2,Ext_2*%
%TO.N,GND*%
X94600000Y-62878000D03*
X94600000Y-71378000D03*
%TD*%
D10*
%TO.P,H2,1,1_1*%
%TO.N,GND*%
X89000000Y-44500000D03*
D11*
X89000000Y-44500000D03*
%TD*%
D10*
%TO.P,H1,1,1_1*%
%TO.N,GND*%
X69000000Y-44500000D03*
D11*
X69000000Y-44500000D03*
%TD*%
D10*
%TO.P,H3,1,1_1*%
%TO.N,GND*%
X69000000Y-75500000D03*
D11*
X69000000Y-75500000D03*
%TD*%
D14*
%TO.N,Net-(C3-Pad1)*%
X77100000Y-61150000D03*
X77118000Y-54687000D03*
D15*
%TO.N,GND*%
X80694730Y-41300000D03*
X95998000Y-65200000D03*
X89164000Y-66108000D03*
X71468000Y-58200000D03*
X89726730Y-41300000D03*
X74452000Y-58200000D03*
X95985000Y-46435000D03*
X87080000Y-66100000D03*
X96048000Y-69050000D03*
X69335000Y-49250000D03*
X93200000Y-58200000D03*
X68180000Y-68398000D03*
X94016000Y-69050000D03*
X94600000Y-71378000D03*
X94668000Y-58200000D03*
X85982000Y-66112000D03*
X74530000Y-65858000D03*
X90000000Y-78850000D03*
X69335000Y-50520000D03*
X60936000Y-58200000D03*
X66132000Y-65850000D03*
X70110730Y-41300000D03*
X61368000Y-78850000D03*
X67164000Y-68398000D03*
X65900000Y-78850000D03*
X65468000Y-58200000D03*
X94600000Y-62878000D03*
X64110730Y-41300000D03*
X96184000Y-58200000D03*
X63968000Y-58200000D03*
X93966000Y-65200000D03*
X60516000Y-64808000D03*
X61500000Y-62878000D03*
X85468000Y-78850000D03*
X79468000Y-78850000D03*
X84100000Y-58200000D03*
X61532000Y-69600000D03*
X91450000Y-68650000D03*
X66936000Y-58200000D03*
X88600000Y-58200000D03*
X76562000Y-68398000D03*
X86984000Y-78850000D03*
X85050000Y-68650000D03*
X62548000Y-69600000D03*
X63700000Y-65300000D03*
X85226730Y-41300000D03*
X69196000Y-65858000D03*
X71900000Y-78850000D03*
X93066000Y-78850000D03*
X59500000Y-64808000D03*
X61500000Y-71378000D03*
X68594730Y-41300000D03*
X81084000Y-58200000D03*
X83900000Y-68650000D03*
X86202000Y-68648000D03*
X88148000Y-66108000D03*
X87270000Y-68656000D03*
X67126730Y-41300000D03*
X91226730Y-41300000D03*
X68180000Y-65858000D03*
X88500000Y-78850000D03*
X92950000Y-65200000D03*
X72936000Y-58200000D03*
X86694730Y-41300000D03*
X75292000Y-64334000D03*
X79070000Y-68950000D03*
X69196000Y-68398000D03*
X76562000Y-65858000D03*
X65626730Y-41300000D03*
X68452000Y-58200000D03*
X95985000Y-51385000D03*
X72350000Y-65900000D03*
X89302000Y-68656000D03*
X62884000Y-78850000D03*
X71990000Y-68398000D03*
X68884000Y-78850000D03*
X92285000Y-47487000D03*
X77626730Y-41300000D03*
X61532000Y-64808000D03*
X80372000Y-65858000D03*
X67164000Y-65858000D03*
X95032000Y-69050000D03*
X93000000Y-69050000D03*
X62548000Y-64808000D03*
X76110730Y-41300000D03*
X79568000Y-58200000D03*
X74530000Y-68398000D03*
X74884000Y-78850000D03*
X63750000Y-69050000D03*
X90318000Y-68656000D03*
X73350000Y-54700000D03*
X74594730Y-41300000D03*
X84000000Y-78850000D03*
X91350000Y-66100000D03*
X90180000Y-66108000D03*
X80984000Y-78850000D03*
X73368000Y-78850000D03*
X82600000Y-58200000D03*
X82500000Y-78850000D03*
X62452000Y-58200000D03*
X71626730Y-41300000D03*
X87084000Y-58200000D03*
X78000000Y-78850000D03*
X73126730Y-41300000D03*
X65116000Y-65850000D03*
X88286000Y-68656000D03*
X78100000Y-58200000D03*
X77578000Y-65858000D03*
X69968000Y-58200000D03*
X83726730Y-41300000D03*
X84436000Y-64588000D03*
X70400000Y-78850000D03*
X94582000Y-78850000D03*
X91568000Y-58200000D03*
X80340000Y-68950000D03*
X76400000Y-78850000D03*
X81388000Y-65858000D03*
X75546000Y-68398000D03*
X79226730Y-41300000D03*
X91550000Y-78850000D03*
X90100000Y-58200000D03*
X85568000Y-58200000D03*
X66132000Y-68390000D03*
X75968000Y-58200000D03*
X65116000Y-68390000D03*
X60516000Y-69600000D03*
X81388000Y-68652000D03*
X62594730Y-41300000D03*
X59500000Y-69600000D03*
X94982000Y-65200000D03*
X74550000Y-50650000D03*
X67368000Y-78850000D03*
X71990000Y-67128000D03*
X82210730Y-41300000D03*
X88210730Y-41300000D03*
X75546000Y-65858000D03*
X77800000Y-68950000D03*
X64400000Y-78850000D03*
X84966000Y-66112000D03*
X79356000Y-67378000D03*
X79356000Y-65858000D03*
X83950000Y-66112000D03*
X82658000Y-68652000D03*
X59468000Y-58200000D03*
D14*
%TO.N,Net-(J4-Pin_1)*%
X91185000Y-49535000D03*
X65512000Y-48282000D03*
X65512000Y-51382000D03*
X74318000Y-48187000D03*
%TD*%
%TA.AperFunction,Conductor*%
%TO.N,GND*%
G36*
X94521243Y-40687669D02*
G01*
X94825061Y-40703591D01*
X94837937Y-40704945D01*
X95135212Y-40752029D01*
X95147896Y-40754724D01*
X95438626Y-40832625D01*
X95450967Y-40836636D01*
X95731935Y-40944489D01*
X95743790Y-40949767D01*
X96011976Y-41086415D01*
X96023192Y-41092891D01*
X96275619Y-41256818D01*
X96286100Y-41264433D01*
X96482849Y-41423757D01*
X96520011Y-41453850D01*
X96529656Y-41462535D01*
X96742464Y-41675343D01*
X96751149Y-41684988D01*
X96940564Y-41918896D01*
X96948183Y-41929384D01*
X97112105Y-42181801D01*
X97118591Y-42193035D01*
X97255231Y-42461206D01*
X97260510Y-42473064D01*
X97368363Y-42754032D01*
X97372374Y-42766375D01*
X97450273Y-43057097D01*
X97452971Y-43069793D01*
X97500052Y-43367046D01*
X97501409Y-43379955D01*
X97517330Y-43683756D01*
X97517500Y-43690245D01*
X97517500Y-76683754D01*
X97517330Y-76690243D01*
X97501409Y-76994044D01*
X97500052Y-77006953D01*
X97452971Y-77304206D01*
X97450273Y-77316902D01*
X97372374Y-77607624D01*
X97368363Y-77619967D01*
X97260510Y-77900935D01*
X97255231Y-77912793D01*
X97118591Y-78180964D01*
X97112101Y-78192204D01*
X96948188Y-78444609D01*
X96940559Y-78455110D01*
X96751149Y-78689011D01*
X96742464Y-78698656D01*
X96529656Y-78911464D01*
X96520011Y-78920149D01*
X96286110Y-79109559D01*
X96275609Y-79117188D01*
X96023204Y-79281101D01*
X96011964Y-79287591D01*
X95743793Y-79424231D01*
X95731935Y-79429510D01*
X95450967Y-79537363D01*
X95438624Y-79541374D01*
X95147902Y-79619273D01*
X95135206Y-79621971D01*
X94837953Y-79669052D01*
X94825044Y-79670409D01*
X94521244Y-79686330D01*
X94514755Y-79686500D01*
X61521245Y-79686500D01*
X61514756Y-79686330D01*
X61210955Y-79670409D01*
X61198046Y-79669052D01*
X60900793Y-79621971D01*
X60888097Y-79619273D01*
X60597375Y-79541374D01*
X60585032Y-79537363D01*
X60304064Y-79429510D01*
X60292206Y-79424231D01*
X60161585Y-79357676D01*
X60024029Y-79287587D01*
X60012801Y-79281105D01*
X59760384Y-79117183D01*
X59749896Y-79109564D01*
X59515988Y-78920149D01*
X59506343Y-78911464D01*
X59293535Y-78698656D01*
X59284850Y-78689011D01*
X59241713Y-78635741D01*
X59095433Y-78455100D01*
X59087818Y-78444619D01*
X58923891Y-78192192D01*
X58917415Y-78180976D01*
X58780767Y-77912790D01*
X58775489Y-77900935D01*
X58667636Y-77619967D01*
X58663625Y-77607624D01*
X58585726Y-77316902D01*
X58583028Y-77304206D01*
X58572904Y-77240285D01*
X58535945Y-77006937D01*
X58534591Y-76994061D01*
X58518670Y-76690243D01*
X58518500Y-76683754D01*
X58518500Y-61077525D01*
X76549500Y-61077525D01*
X76549500Y-61222475D01*
X76587016Y-61362485D01*
X76587017Y-61362488D01*
X76659488Y-61488011D01*
X76659490Y-61488013D01*
X76659491Y-61488015D01*
X76761985Y-61590509D01*
X76761986Y-61590510D01*
X76761988Y-61590511D01*
X76887511Y-61662982D01*
X76887512Y-61662982D01*
X76887515Y-61662984D01*
X77027525Y-61700500D01*
X77027528Y-61700500D01*
X77172472Y-61700500D01*
X77172475Y-61700500D01*
X77312485Y-61662984D01*
X77438015Y-61590509D01*
X77540509Y-61488015D01*
X77612984Y-61362485D01*
X77650500Y-61222475D01*
X77650500Y-61077525D01*
X77612984Y-60937515D01*
X77540509Y-60811985D01*
X77438015Y-60709491D01*
X77438013Y-60709490D01*
X77438011Y-60709488D01*
X77312488Y-60637017D01*
X77312489Y-60637017D01*
X77301006Y-60633940D01*
X77172475Y-60599500D01*
X77027525Y-60599500D01*
X76898993Y-60633940D01*
X76887511Y-60637017D01*
X76761988Y-60709488D01*
X76761982Y-60709493D01*
X76659493Y-60811982D01*
X76659488Y-60811988D01*
X76587017Y-60937511D01*
X76587016Y-60937515D01*
X76549500Y-61077525D01*
X58518500Y-61077525D01*
X58518500Y-54614525D01*
X76567500Y-54614525D01*
X76567500Y-54759475D01*
X76605016Y-54899485D01*
X76605017Y-54899488D01*
X76677488Y-55025011D01*
X76677490Y-55025013D01*
X76677491Y-55025015D01*
X76779985Y-55127509D01*
X76779986Y-55127510D01*
X76779988Y-55127511D01*
X76905511Y-55199982D01*
X76905512Y-55199982D01*
X76905515Y-55199984D01*
X77045525Y-55237500D01*
X77045528Y-55237500D01*
X77190472Y-55237500D01*
X77190475Y-55237500D01*
X77330485Y-55199984D01*
X77456015Y-55127509D01*
X77558509Y-55025015D01*
X77630984Y-54899485D01*
X77668500Y-54759475D01*
X77668500Y-54614525D01*
X77630984Y-54474515D01*
X77558509Y-54348985D01*
X77456015Y-54246491D01*
X77456013Y-54246490D01*
X77456011Y-54246488D01*
X77330488Y-54174017D01*
X77330489Y-54174017D01*
X77319006Y-54170940D01*
X77190475Y-54136500D01*
X77045525Y-54136500D01*
X76916993Y-54170940D01*
X76905511Y-54174017D01*
X76779988Y-54246488D01*
X76779982Y-54246493D01*
X76677493Y-54348982D01*
X76677488Y-54348988D01*
X76605017Y-54474511D01*
X76605016Y-54474515D01*
X76567500Y-54614525D01*
X58518500Y-54614525D01*
X58518500Y-51309525D01*
X64961500Y-51309525D01*
X64961500Y-51454475D01*
X64999016Y-51594485D01*
X64999017Y-51594488D01*
X65071488Y-51720011D01*
X65071490Y-51720013D01*
X65071491Y-51720015D01*
X65173985Y-51822509D01*
X65173986Y-51822510D01*
X65173988Y-51822511D01*
X65299511Y-51894982D01*
X65299512Y-51894982D01*
X65299515Y-51894984D01*
X65439525Y-51932500D01*
X65439528Y-51932500D01*
X65584472Y-51932500D01*
X65584475Y-51932500D01*
X65724485Y-51894984D01*
X65850015Y-51822509D01*
X65952509Y-51720015D01*
X66024984Y-51594485D01*
X66062500Y-51454475D01*
X66062500Y-51309525D01*
X66024984Y-51169515D01*
X65952509Y-51043985D01*
X65850015Y-50941491D01*
X65850013Y-50941490D01*
X65850011Y-50941488D01*
X65724488Y-50869017D01*
X65724489Y-50869017D01*
X65713006Y-50865940D01*
X65584475Y-50831500D01*
X65439525Y-50831500D01*
X65310993Y-50865940D01*
X65299511Y-50869017D01*
X65173988Y-50941488D01*
X65173982Y-50941493D01*
X65071493Y-51043982D01*
X65071488Y-51043988D01*
X64999017Y-51169511D01*
X64999016Y-51169515D01*
X64961500Y-51309525D01*
X58518500Y-51309525D01*
X58518500Y-49462525D01*
X90634500Y-49462525D01*
X90634500Y-49607475D01*
X90672016Y-49747485D01*
X90672017Y-49747488D01*
X90744488Y-49873011D01*
X90744490Y-49873013D01*
X90744491Y-49873015D01*
X90846985Y-49975509D01*
X90846986Y-49975510D01*
X90846988Y-49975511D01*
X90972511Y-50047982D01*
X90972512Y-50047982D01*
X90972515Y-50047984D01*
X91112525Y-50085500D01*
X91112528Y-50085500D01*
X91257472Y-50085500D01*
X91257475Y-50085500D01*
X91397485Y-50047984D01*
X91523015Y-49975509D01*
X91625509Y-49873015D01*
X91697984Y-49747485D01*
X91735500Y-49607475D01*
X91735500Y-49462525D01*
X91697984Y-49322515D01*
X91625509Y-49196985D01*
X91523015Y-49094491D01*
X91523013Y-49094490D01*
X91523011Y-49094488D01*
X91397488Y-49022017D01*
X91397489Y-49022017D01*
X91386006Y-49018940D01*
X91257475Y-48984500D01*
X91112525Y-48984500D01*
X90983993Y-49018940D01*
X90972511Y-49022017D01*
X90846988Y-49094488D01*
X90846982Y-49094493D01*
X90744493Y-49196982D01*
X90744488Y-49196988D01*
X90672017Y-49322511D01*
X90672016Y-49322515D01*
X90634500Y-49462525D01*
X58518500Y-49462525D01*
X58518500Y-48209525D01*
X64961500Y-48209525D01*
X64961500Y-48354475D01*
X64999016Y-48494485D01*
X64999017Y-48494488D01*
X65071488Y-48620011D01*
X65071490Y-48620013D01*
X65071491Y-48620015D01*
X65173985Y-48722509D01*
X65173986Y-48722510D01*
X65173988Y-48722511D01*
X65299511Y-48794982D01*
X65299512Y-48794982D01*
X65299515Y-48794984D01*
X65439525Y-48832500D01*
X65439528Y-48832500D01*
X65584472Y-48832500D01*
X65584475Y-48832500D01*
X65724485Y-48794984D01*
X65850015Y-48722509D01*
X65952509Y-48620015D01*
X66024984Y-48494485D01*
X66062500Y-48354475D01*
X66062500Y-48209525D01*
X66037045Y-48114525D01*
X73767500Y-48114525D01*
X73767500Y-48259475D01*
X73805016Y-48399485D01*
X73805017Y-48399488D01*
X73877488Y-48525011D01*
X73877490Y-48525013D01*
X73877491Y-48525015D01*
X73979985Y-48627509D01*
X73979986Y-48627510D01*
X73979988Y-48627511D01*
X74105511Y-48699982D01*
X74105512Y-48699982D01*
X74105515Y-48699984D01*
X74245525Y-48737500D01*
X74245528Y-48737500D01*
X74390472Y-48737500D01*
X74390475Y-48737500D01*
X74530485Y-48699984D01*
X74656015Y-48627509D01*
X74758509Y-48525015D01*
X74830984Y-48399485D01*
X74868500Y-48259475D01*
X74868500Y-48114525D01*
X74830984Y-47974515D01*
X74813357Y-47943985D01*
X74758511Y-47848988D01*
X74758506Y-47848982D01*
X74656017Y-47746493D01*
X74656011Y-47746488D01*
X74530488Y-47674017D01*
X74530489Y-47674017D01*
X74519006Y-47670940D01*
X74390475Y-47636500D01*
X74245525Y-47636500D01*
X74116993Y-47670940D01*
X74105511Y-47674017D01*
X73979988Y-47746488D01*
X73979982Y-47746493D01*
X73877493Y-47848982D01*
X73877488Y-47848988D01*
X73805017Y-47974511D01*
X73805016Y-47974515D01*
X73767500Y-48114525D01*
X66037045Y-48114525D01*
X66024984Y-48069515D01*
X65970133Y-47974511D01*
X65952511Y-47943988D01*
X65952506Y-47943982D01*
X65850017Y-47841493D01*
X65850011Y-47841488D01*
X65724488Y-47769017D01*
X65724489Y-47769017D01*
X65713006Y-47765940D01*
X65584475Y-47731500D01*
X65439525Y-47731500D01*
X65310993Y-47765940D01*
X65299511Y-47769017D01*
X65173988Y-47841488D01*
X65173982Y-47841493D01*
X65071493Y-47943982D01*
X65071488Y-47943988D01*
X64999017Y-48069511D01*
X64999016Y-48069515D01*
X64961500Y-48209525D01*
X58518500Y-48209525D01*
X58518500Y-43690245D01*
X58518670Y-43683756D01*
X58521953Y-43621108D01*
X58534591Y-43379936D01*
X58535945Y-43367064D01*
X58583030Y-43069783D01*
X58585723Y-43057107D01*
X58663627Y-42766367D01*
X58667636Y-42754032D01*
X58775493Y-42473054D01*
X58780763Y-42461215D01*
X58917419Y-42193014D01*
X58923885Y-42181815D01*
X59087824Y-41929371D01*
X59095426Y-41918908D01*
X59284858Y-41684978D01*
X59293525Y-41675353D01*
X59506353Y-41462525D01*
X59515978Y-41453858D01*
X59749908Y-41264426D01*
X59760371Y-41256824D01*
X60012815Y-41092885D01*
X60024014Y-41086419D01*
X60292215Y-40949763D01*
X60304054Y-40944493D01*
X60585039Y-40836633D01*
X60597367Y-40832627D01*
X60888107Y-40754723D01*
X60900783Y-40752030D01*
X61198064Y-40704945D01*
X61210936Y-40703591D01*
X61514756Y-40687669D01*
X61521245Y-40687500D01*
X61583892Y-40687500D01*
X94452108Y-40687500D01*
X94514755Y-40687500D01*
X94521243Y-40687669D01*
G37*
%TD.AperFunction*%
%TD*%
M02*
