%TF.GenerationSoftware,KiCad,Pcbnew,10.0.1*%
%TF.CreationDate,2026-04-30T02:01:38+08:00*%
%TF.ProjectId,pre_filter,7072655f-6669-46c7-9465-722e6b696361,rev?*%
%TF.SameCoordinates,Original*%
%TF.FileFunction,Soldermask,Top*%
%TF.FilePolarity,Negative*%
%FSLAX46Y46*%
G04 Gerber Fmt 4.6, Leading zero omitted, Abs format (unit mm)*
G04 Created by KiCad (PCBNEW 10.0.1) date 2026-04-30 02:01:38*
%MOMM*%
%LPD*%
G01*
G04 APERTURE LIST*
G04 Aperture macros list*
%AMRoundRect*
0 Rectangle with rounded corners*
0 $1 Rounding radius*
0 $2 $3 $4 $5 $6 $7 $8 $9 X,Y pos of 4 corners*
0 Add a 4 corners polygon primitive as box body*
4,1,4,$2,$3,$4,$5,$6,$7,$8,$9,$2,$3,0*
0 Add four circle primitives for the rounded corners*
1,1,$1+$1,$2,$3*
1,1,$1+$1,$4,$5*
1,1,$1+$1,$6,$7*
1,1,$1+$1,$8,$9*
0 Add four rect primitives between the rounded corners*
20,1,$1+$1,$2,$3,$4,$5,0*
20,1,$1+$1,$4,$5,$6,$7,0*
20,1,$1+$1,$6,$7,$8,$9,0*
20,1,$1+$1,$8,$9,$2,$3,0*%
G04 Aperture macros list end*
%ADD10C,0.000000*%
%ADD11C,0.200000*%
%ADD12RoundRect,0.140000X0.140000X0.170000X-0.140000X0.170000X-0.140000X-0.170000X0.140000X-0.170000X0*%
%ADD13R,2.000000X0.600000*%
%ADD14R,1.100000X0.600000*%
%ADD15RoundRect,0.147500X-0.172500X0.147500X-0.172500X-0.147500X0.172500X-0.147500X0.172500X0.147500X0*%
%ADD16RoundRect,0.250000X-0.375000X-0.625000X0.375000X-0.625000X0.375000X0.625000X-0.375000X0.625000X0*%
%ADD17RoundRect,0.135000X-0.135000X-0.185000X0.135000X-0.185000X0.135000X0.185000X-0.135000X0.185000X0*%
%ADD18RoundRect,0.140000X-0.140000X-0.170000X0.140000X-0.170000X0.140000X0.170000X-0.140000X0.170000X0*%
%ADD19RoundRect,0.250000X0.250000X0.475000X-0.250000X0.475000X-0.250000X-0.475000X0.250000X-0.475000X0*%
%ADD20RoundRect,0.250000X0.400000X0.450000X-0.400000X0.450000X-0.400000X-0.450000X0.400000X-0.450000X0*%
%ADD21C,3.100000*%
%ADD22C,4.700000*%
%ADD23RoundRect,0.175000X-0.625000X0.175000X-0.625000X-0.175000X0.625000X-0.175000X0.625000X0.175000X0*%
%ADD24RoundRect,0.200000X-0.600000X0.200000X-0.600000X-0.200000X0.600000X-0.200000X0.600000X0.200000X0*%
%ADD25RoundRect,0.225000X-0.575000X0.225000X-0.575000X-0.225000X0.575000X-0.225000X0.575000X0.225000X0*%
%ADD26O,1.700000X1.000000*%
%ADD27R,5.080000X1.500000*%
%ADD28RoundRect,0.062500X-0.287500X-0.062500X0.287500X-0.062500X0.287500X0.062500X-0.287500X0.062500X0*%
%ADD29R,0.800000X1.600000*%
%ADD30RoundRect,0.150000X0.700000X-0.150000X0.700000X0.150000X-0.700000X0.150000X-0.700000X-0.150000X0*%
%ADD31RoundRect,0.250000X1.100000X-0.250000X1.100000X0.250000X-1.100000X0.250000X-1.100000X-0.250000X0*%
%ADD32RoundRect,0.135000X-0.185000X0.135000X-0.185000X-0.135000X0.185000X-0.135000X0.185000X0.135000X0*%
G04 APERTURE END LIST*
D10*
G36*
X98250000Y-44000000D02*
G01*
X91350000Y-44000000D01*
X91350000Y-44500000D01*
X86650000Y-44500000D01*
X86650000Y-44000000D01*
X71350000Y-44000000D01*
X71350000Y-44500000D01*
X66650000Y-44500000D01*
X66650000Y-44000000D01*
X57500000Y-44000000D01*
X57500000Y-39000000D01*
X98250000Y-39000000D01*
X98250000Y-44000000D01*
G37*
G36*
X71353030Y-76000000D02*
G01*
X86653030Y-76000000D01*
X86653030Y-75500000D01*
X91353030Y-75500000D01*
X91353030Y-76000000D01*
X98253030Y-76000000D01*
X98253030Y-81000000D01*
X57503030Y-81000000D01*
X57503030Y-76000000D01*
X66653030Y-76000000D01*
X66653030Y-75500000D01*
X71353030Y-75500000D01*
X71353030Y-76000000D01*
G37*
D11*
X57200000Y-56437000D02*
X98900000Y-56437000D01*
X98900000Y-59937000D01*
X57200000Y-59937000D01*
X57200000Y-56437000D01*
G36*
X57200000Y-56437000D02*
G01*
X98900000Y-56437000D01*
X98900000Y-59937000D01*
X57200000Y-59937000D01*
X57200000Y-56437000D01*
G37*
D12*
%TO.C,C3*%
X77070000Y-64334000D03*
X76110000Y-64334000D03*
%TD*%
D13*
%TO.C,X1*%
X70916000Y-65928000D03*
D14*
X70466000Y-67128000D03*
X70466000Y-68328000D03*
X73366000Y-68328000D03*
X73366000Y-67128000D03*
X73366000Y-65928000D03*
%TD*%
D15*
%TO.C,L1*%
X82404000Y-66158000D03*
X82404000Y-67128000D03*
%TD*%
D16*
%TO.C,F1*%
X75951000Y-48120000D03*
X78751000Y-48120000D03*
%TD*%
D17*
%TO.C,R3*%
X67230000Y-49250000D03*
X68250000Y-49250000D03*
%TD*%
D18*
%TO.C,C6*%
X67540000Y-67128000D03*
X68500000Y-67128000D03*
%TD*%
%TO.C,C8*%
X84464000Y-67128000D03*
X85424000Y-67128000D03*
%TD*%
D19*
%TO.C,FB1*%
X79000000Y-53200000D03*
X77100000Y-53200000D03*
%TD*%
D17*
%TO.C,R4*%
X67230000Y-50520000D03*
X68250000Y-50520000D03*
%TD*%
D20*
%TO.C,D1*%
X78931000Y-50660000D03*
X76031000Y-50660000D03*
%TD*%
D21*
%TO.C,H4*%
X89000000Y-75500000D03*
D22*
X89000000Y-75500000D03*
%TD*%
D19*
%TO.C,C5*%
X75244000Y-53327000D03*
X73344000Y-53327000D03*
%TD*%
D23*
%TO.C,J3*%
X63814000Y-49302000D03*
D24*
X63814000Y-51322000D03*
D25*
X63814000Y-52552000D03*
D23*
X63814000Y-50302000D03*
D24*
X63814000Y-48282000D03*
D25*
X63814000Y-47052000D03*
D26*
X63634000Y-45482000D03*
X59834000Y-45482000D03*
X63634000Y-54122000D03*
X59834000Y-54122000D03*
%TD*%
D27*
%TO.C,J1*%
X61500000Y-67128000D03*
X61500000Y-71378000D03*
X61500000Y-62878000D03*
%TD*%
D28*
%TO.C,U1*%
X78356000Y-66628000D03*
X78356000Y-67128000D03*
X78356000Y-67628000D03*
X78356000Y-68128000D03*
X80356000Y-68128000D03*
X80356000Y-67628000D03*
X80356000Y-67128000D03*
X80356000Y-66628000D03*
D29*
X79356000Y-67378000D03*
%TD*%
D27*
%TO.C,J2*%
X94600000Y-67128000D03*
X94600000Y-62878000D03*
X94600000Y-71378000D03*
%TD*%
D30*
%TO.C,J4*%
X92785000Y-49535000D03*
X92785000Y-48285000D03*
D31*
X95985000Y-51385000D03*
X95985000Y-46435000D03*
%TD*%
D21*
%TO.C,H2*%
X89000000Y-44500000D03*
D22*
X89000000Y-44500000D03*
%TD*%
D21*
%TO.C,H1*%
X69000000Y-44500000D03*
D22*
X69000000Y-44500000D03*
%TD*%
D18*
%TO.C,C7*%
X75546000Y-67128000D03*
X76506000Y-67128000D03*
%TD*%
D21*
%TO.C,H3*%
X69000000Y-75500000D03*
D22*
X69000000Y-75500000D03*
%TD*%
D18*
%TO.C,C4*%
X82460000Y-64588000D03*
X83420000Y-64588000D03*
%TD*%
D32*
%TO.C,R2*%
X78495000Y-64328000D03*
X78495000Y-65348000D03*
%TD*%
M02*
