%TF.GenerationSoftware,KiCad,Pcbnew,10.0.1*%
%TF.CreationDate,2026-04-30T02:01:38+08:00*%
%TF.ProjectId,pre_filter,7072655f-6669-46c7-9465-722e6b696361,rev?*%
%TF.SameCoordinates,Original*%
%TF.FileFunction,Copper,L1,Top*%
%TF.FilePolarity,Positive*%
%FSLAX46Y46*%
G04 Gerber Fmt 4.6, Leading zero omitted, Abs format (unit mm)*
G04 Created by KiCad (PCBNEW 10.0.1) date 2026-04-30 02:01:38*
%MOMM*%
%LPD*%
G01*
G04 APERTURE LIST*
G04 Aperture macros list*
%AMRoundRect*
0 Rectangle with rounded corners*
0 $1 Rounding radius*
0 $2 $3 $4 $5 $6 $7 $8 $9 X,Y pos of 4 corners*
0 Add a 4 corners polygon primitive as box body*
4,1,4,$2,$3,$4,$5,$6,$7,$8,$9,$2,$3,0*
0 Add four circle primitives for the rounded corners*
1,1,$1+$1,$2,$3*
1,1,$1+$1,$4,$5*
1,1,$1+$1,$6,$7*
1,1,$1+$1,$8,$9*
0 Add four rect primitives between the rounded corners*
20,1,$1+$1,$2,$3,$4,$5,0*
20,1,$1+$1,$4,$5,$6,$7,0*
20,1,$1+$1,$6,$7,$8,$9,0*
20,1,$1+$1,$8,$9,$2,$3,0*%
G04 Aperture macros list end*
%TA.AperFunction,SMDPad,CuDef*%
%ADD10RoundRect,0.140000X0.140000X0.170000X-0.140000X0.170000X-0.140000X-0.170000X0.140000X-0.170000X0*%
%TD*%
%TA.AperFunction,SMDPad,CuDef*%
%ADD11R,2.000000X0.600000*%
%TD*%
%TA.AperFunction,SMDPad,CuDef*%
%ADD12R,1.100000X0.600000*%
%TD*%
%TA.AperFunction,SMDPad,CuDef*%
%ADD13RoundRect,0.147500X-0.172500X0.147500X-0.172500X-0.147500X0.172500X-0.147500X0.172500X0.147500X0*%
%TD*%
%TA.AperFunction,SMDPad,CuDef*%
%ADD14RoundRect,0.250000X-0.375000X-0.625000X0.375000X-0.625000X0.375000X0.625000X-0.375000X0.625000X0*%
%TD*%
%TA.AperFunction,SMDPad,CuDef*%
%ADD15RoundRect,0.135000X-0.135000X-0.185000X0.135000X-0.185000X0.135000X0.185000X-0.135000X0.185000X0*%
%TD*%
%TA.AperFunction,SMDPad,CuDef*%
%ADD16RoundRect,0.140000X-0.140000X-0.170000X0.140000X-0.170000X0.140000X0.170000X-0.140000X0.170000X0*%
%TD*%
%TA.AperFunction,SMDPad,CuDef*%
%ADD17RoundRect,0.250000X0.250000X0.475000X-0.250000X0.475000X-0.250000X-0.475000X0.250000X-0.475000X0*%
%TD*%
%TA.AperFunction,SMDPad,CuDef*%
%ADD18RoundRect,0.250000X0.400000X0.450000X-0.400000X0.450000X-0.400000X-0.450000X0.400000X-0.450000X0*%
%TD*%
%TA.AperFunction,ComponentPad*%
%ADD19C,3.100000*%
%TD*%
%TA.AperFunction,ConnectorPad*%
%ADD20C,4.700000*%
%TD*%
%TA.AperFunction,SMDPad,CuDef*%
%ADD21RoundRect,0.175000X-0.625000X0.175000X-0.625000X-0.175000X0.625000X-0.175000X0.625000X0.175000X0*%
%TD*%
%TA.AperFunction,SMDPad,CuDef*%
%ADD22RoundRect,0.200000X-0.600000X0.200000X-0.600000X-0.200000X0.600000X-0.200000X0.600000X0.200000X0*%
%TD*%
%TA.AperFunction,SMDPad,CuDef*%
%ADD23RoundRect,0.225000X-0.575000X0.225000X-0.575000X-0.225000X0.575000X-0.225000X0.575000X0.225000X0*%
%TD*%
%TA.AperFunction,ComponentPad*%
%ADD24O,1.700000X1.000000*%
%TD*%
%TA.AperFunction,SMDPad,CuDef*%
%ADD25R,5.080000X1.500000*%
%TD*%
%TA.AperFunction,SMDPad,CuDef*%
%ADD26RoundRect,0.062500X-0.287500X-0.062500X0.287500X-0.062500X0.287500X0.062500X-0.287500X0.062500X0*%
%TD*%
%TA.AperFunction,HeatsinkPad*%
%ADD27R,0.800000X1.600000*%
%TD*%
%TA.AperFunction,SMDPad,CuDef*%
%ADD28RoundRect,0.150000X0.700000X-0.150000X0.700000X0.150000X-0.700000X0.150000X-0.700000X-0.150000X0*%
%TD*%
%TA.AperFunction,SMDPad,CuDef*%
%ADD29RoundRect,0.250000X1.100000X-0.250000X1.100000X0.250000X-1.100000X0.250000X-1.100000X-0.250000X0*%
%TD*%
%TA.AperFunction,SMDPad,CuDef*%
%ADD30RoundRect,0.135000X-0.185000X0.135000X-0.185000X-0.135000X0.185000X-0.135000X0.185000X0.135000X0*%
%TD*%
%TA.AperFunction,ViaPad*%
%ADD31C,0.500000*%
%TD*%
%TA.AperFunction,ViaPad*%
%ADD32C,0.600000*%
%TD*%
%TA.AperFunction,Conductor*%
%ADD33C,0.600000*%
%TD*%
%TA.AperFunction,Conductor*%
%ADD34C,0.500000*%
%TD*%
%TA.AperFunction,Conductor*%
%ADD35C,0.200000*%
%TD*%
%TA.AperFunction,Conductor*%
%ADD36C,0.350000*%
%TD*%
%TA.AperFunction,Conductor*%
%ADD37C,0.800000*%
%TD*%
G04 APERTURE END LIST*
D10*
%TO.P,C3,1*%
%TO.N,Net-(C3-Pad1)*%
X77070000Y-64334000D03*
%TO.P,C3,2*%
%TO.N,GND*%
X76110000Y-64334000D03*
%TD*%
D11*
%TO.P,X1,1,GND_1*%
%TO.N,GND*%
X70916000Y-65928000D03*
D12*
%TO.P,X1,2,IN_2*%
%TO.N,Net-(X1-IN)*%
X70466000Y-67128000D03*
%TO.P,X1,3,GND_3*%
%TO.N,GND*%
X70466000Y-68328000D03*
%TO.P,X1,4,GND_4*%
X73366000Y-68328000D03*
%TO.P,X1,5,OUT_5*%
%TO.N,Net-(X1-OUT)*%
X73366000Y-67128000D03*
%TO.P,X1,6,GND_6*%
%TO.N,GND*%
X73366000Y-65928000D03*
%TD*%
D13*
%TO.P,L1,1,1_1*%
%TO.N,Net-(C3-Pad1)*%
X82404000Y-66158000D03*
%TO.P,L1,2,2_2*%
%TO.N,Net-(C8-Pad1)*%
X82404000Y-67128000D03*
%TD*%
D14*
%TO.P,F1,1*%
%TO.N,Net-(J4-Pin_1)*%
X75951000Y-48120000D03*
%TO.P,F1,2*%
%TO.N,Net-(D1-A1)*%
X78751000Y-48120000D03*
%TD*%
D15*
%TO.P,R3,1*%
%TO.N,Net-(J3-CC1)*%
X67230000Y-49250000D03*
%TO.P,R3,2*%
%TO.N,GND*%
X68250000Y-49250000D03*
%TD*%
D16*
%TO.P,C6,1*%
%TO.N,Net-(J1-In)*%
X67540000Y-67128000D03*
%TO.P,C6,2*%
%TO.N,Net-(X1-IN)*%
X68500000Y-67128000D03*
%TD*%
%TO.P,C8,1*%
%TO.N,Net-(C8-Pad1)*%
X84464000Y-67128000D03*
%TO.P,C8,2*%
%TO.N,Net-(J2-In)*%
X85424000Y-67128000D03*
%TD*%
D17*
%TO.P,FB1,1*%
%TO.N,Net-(D1-A1)*%
X79000000Y-53200000D03*
%TO.P,FB1,2*%
%TO.N,Net-(C3-Pad1)*%
X77100000Y-53200000D03*
%TD*%
D15*
%TO.P,R4,1*%
%TO.N,Net-(J3-CC2)*%
X67230000Y-50520000D03*
%TO.P,R4,2*%
%TO.N,GND*%
X68250000Y-50520000D03*
%TD*%
D18*
%TO.P,D1,1,A1_1*%
%TO.N,Net-(D1-A1)*%
X78931000Y-50660000D03*
%TO.P,D1,2,A2_2*%
%TO.N,GND*%
X76031000Y-50660000D03*
%TD*%
D19*
%TO.P,H4,1,1_1*%
%TO.N,GND*%
X89000000Y-75500000D03*
D20*
X89000000Y-75500000D03*
%TD*%
D17*
%TO.P,C5,1*%
%TO.N,Net-(C3-Pad1)*%
X75244000Y-53327000D03*
%TO.P,C5,2*%
%TO.N,GND*%
X73344000Y-53327000D03*
%TD*%
D21*
%TO.P,J3,A5,CC1_A5*%
%TO.N,Net-(J3-CC1)*%
X63814000Y-49302000D03*
D22*
%TO.P,J3,A9,VBUS_A9*%
%TO.N,Net-(J4-Pin_1)*%
X63814000Y-51322000D03*
D23*
%TO.P,J3,A12,GND_A12*%
%TO.N,GND*%
X63814000Y-52552000D03*
D21*
%TO.P,J3,B5,CC2_B5*%
%TO.N,Net-(J3-CC2)*%
X63814000Y-50302000D03*
D22*
%TO.P,J3,B9,VBUS_B9*%
%TO.N,Net-(J4-Pin_1)*%
X63814000Y-48282000D03*
D23*
%TO.P,J3,B12,GND_B12*%
%TO.N,GND*%
X63814000Y-47052000D03*
D24*
%TO.P,J3,SH,SHIELD_SH*%
X63634000Y-45482000D03*
X59834000Y-45482000D03*
X63634000Y-54122000D03*
X59834000Y-54122000D03*
%TD*%
D25*
%TO.P,J1,1,In_1*%
%TO.N,Net-(J1-In)*%
X61500000Y-67128000D03*
%TO.P,J1,2,Ext_2*%
%TO.N,GND*%
X61500000Y-71378000D03*
X61500000Y-62878000D03*
%TD*%
D26*
%TO.P,U1,1,Vb_1*%
%TO.N,Net-(U1-Vb)*%
X78356000Y-66628000D03*
%TO.P,U1,2*%
%TO.N,Net-(C7-Pad2)*%
X78356000Y-67128000D03*
%TO.P,U1,3,GND_3*%
%TO.N,GND*%
X78356000Y-67628000D03*
%TO.P,U1,4,GND_4*%
X78356000Y-68128000D03*
%TO.P,U1,5,GND_5*%
X80356000Y-68128000D03*
%TO.P,U1,6,~{EN}_6*%
X80356000Y-67628000D03*
%TO.P,U1,7*%
%TO.N,Net-(C8-Pad1)*%
X80356000Y-67128000D03*
%TO.P,U1,8,GND_8*%
%TO.N,GND*%
X80356000Y-66628000D03*
D27*
%TO.P,U1,9,GND_9*%
X79356000Y-67378000D03*
%TD*%
D25*
%TO.P,J2,1,In_1*%
%TO.N,Net-(J2-In)*%
X94600000Y-67128000D03*
%TO.P,J2,2,Ext_2*%
%TO.N,GND*%
X94600000Y-62878000D03*
X94600000Y-71378000D03*
%TD*%
D28*
%TO.P,J4,1,Pin_1_1*%
%TO.N,Net-(J4-Pin_1)*%
X92785000Y-49535000D03*
%TO.P,J4,2,Pin_2_2*%
%TO.N,GND*%
X92785000Y-48285000D03*
D29*
%TO.P,J4,MP,MountPin_MP*%
X95985000Y-51385000D03*
X95985000Y-46435000D03*
%TD*%
D19*
%TO.P,H2,1,1_1*%
%TO.N,GND*%
X89000000Y-44500000D03*
D20*
X89000000Y-44500000D03*
%TD*%
D19*
%TO.P,H1,1,1_1*%
%TO.N,GND*%
X69000000Y-44500000D03*
D20*
X69000000Y-44500000D03*
%TD*%
D16*
%TO.P,C7,1*%
%TO.N,Net-(X1-OUT)*%
X75546000Y-67128000D03*
%TO.P,C7,2*%
%TO.N,Net-(C7-Pad2)*%
X76506000Y-67128000D03*
%TD*%
D19*
%TO.P,H3,1,1_1*%
%TO.N,GND*%
X69000000Y-75500000D03*
D20*
X69000000Y-75500000D03*
%TD*%
D16*
%TO.P,C4,1*%
%TO.N,Net-(C3-Pad1)*%
X82460000Y-64588000D03*
%TO.P,C4,2*%
%TO.N,GND*%
X83420000Y-64588000D03*
%TD*%
D30*
%TO.P,R2,1*%
%TO.N,Net-(C3-Pad1)*%
X78495000Y-64328000D03*
%TO.P,R2,2*%
%TO.N,Net-(U1-Vb)*%
X78495000Y-65348000D03*
%TD*%
D31*
%TO.N,Net-(C3-Pad1)*%
X77100000Y-61150000D03*
X77118000Y-54687000D03*
D32*
%TO.N,GND*%
X80694730Y-41300000D03*
X95998000Y-65200000D03*
X89164000Y-66108000D03*
X71468000Y-58200000D03*
X89726730Y-41300000D03*
X74452000Y-58200000D03*
X95985000Y-46435000D03*
X87080000Y-66100000D03*
X96048000Y-69050000D03*
X69335000Y-49250000D03*
X93200000Y-58200000D03*
X68180000Y-68398000D03*
X94016000Y-69050000D03*
X94600000Y-71378000D03*
X94668000Y-58200000D03*
X85982000Y-66112000D03*
X74530000Y-65858000D03*
X90000000Y-78850000D03*
X69335000Y-50520000D03*
X60936000Y-58200000D03*
X66132000Y-65850000D03*
X70110730Y-41300000D03*
X61368000Y-78850000D03*
X67164000Y-68398000D03*
X65900000Y-78850000D03*
X65468000Y-58200000D03*
X94600000Y-62878000D03*
X64110730Y-41300000D03*
X96184000Y-58200000D03*
X63968000Y-58200000D03*
X93966000Y-65200000D03*
X60516000Y-64808000D03*
X61500000Y-62878000D03*
X85468000Y-78850000D03*
X79468000Y-78850000D03*
X84100000Y-58200000D03*
X61532000Y-69600000D03*
X91450000Y-68650000D03*
X66936000Y-58200000D03*
X88600000Y-58200000D03*
X76562000Y-68398000D03*
X86984000Y-78850000D03*
X85050000Y-68650000D03*
X62548000Y-69600000D03*
X63700000Y-65300000D03*
X85226730Y-41300000D03*
X69196000Y-65858000D03*
X71900000Y-78850000D03*
X93066000Y-78850000D03*
X59500000Y-64808000D03*
X61500000Y-71378000D03*
X68594730Y-41300000D03*
X81084000Y-58200000D03*
X83900000Y-68650000D03*
X86202000Y-68648000D03*
X88148000Y-66108000D03*
X87270000Y-68656000D03*
X67126730Y-41300000D03*
X91226730Y-41300000D03*
X68180000Y-65858000D03*
X88500000Y-78850000D03*
X92950000Y-65200000D03*
X72936000Y-58200000D03*
X86694730Y-41300000D03*
X75292000Y-64334000D03*
X79070000Y-68950000D03*
X69196000Y-68398000D03*
X76562000Y-65858000D03*
X65626730Y-41300000D03*
X68452000Y-58200000D03*
X95985000Y-51385000D03*
X72350000Y-65900000D03*
X89302000Y-68656000D03*
X62884000Y-78850000D03*
X71990000Y-68398000D03*
X68884000Y-78850000D03*
X92285000Y-47487000D03*
X77626730Y-41300000D03*
X61532000Y-64808000D03*
X80372000Y-65858000D03*
X67164000Y-65858000D03*
X95032000Y-69050000D03*
X93000000Y-69050000D03*
X62548000Y-64808000D03*
X76110730Y-41300000D03*
X79568000Y-58200000D03*
X74530000Y-68398000D03*
X74884000Y-78850000D03*
X63750000Y-69050000D03*
X90318000Y-68656000D03*
X73350000Y-54700000D03*
X74594730Y-41300000D03*
X84000000Y-78850000D03*
X91350000Y-66100000D03*
X90180000Y-66108000D03*
X80984000Y-78850000D03*
X73368000Y-78850000D03*
X82600000Y-58200000D03*
X82500000Y-78850000D03*
X62452000Y-58200000D03*
X71626730Y-41300000D03*
X87084000Y-58200000D03*
X78000000Y-78850000D03*
X73126730Y-41300000D03*
X65116000Y-65850000D03*
X88286000Y-68656000D03*
X78100000Y-58200000D03*
X77578000Y-65858000D03*
X69968000Y-58200000D03*
X83726730Y-41300000D03*
X84436000Y-64588000D03*
X70400000Y-78850000D03*
X94582000Y-78850000D03*
X91568000Y-58200000D03*
X80340000Y-68950000D03*
X76400000Y-78850000D03*
X81388000Y-65858000D03*
X75546000Y-68398000D03*
X79226730Y-41300000D03*
X91550000Y-78850000D03*
X90100000Y-58200000D03*
X85568000Y-58200000D03*
X66132000Y-68390000D03*
X75968000Y-58200000D03*
X65116000Y-68390000D03*
X60516000Y-69600000D03*
X81388000Y-68652000D03*
X62594730Y-41300000D03*
X59500000Y-69600000D03*
X94982000Y-65200000D03*
X74550000Y-50650000D03*
X67368000Y-78850000D03*
X71990000Y-67128000D03*
X82210730Y-41300000D03*
X88210730Y-41300000D03*
X75546000Y-65858000D03*
X77800000Y-68950000D03*
X64400000Y-78850000D03*
X84966000Y-66112000D03*
X79356000Y-67378000D03*
X79356000Y-65858000D03*
X83950000Y-66112000D03*
X82658000Y-68652000D03*
X59468000Y-58200000D03*
D31*
%TO.N,Net-(J4-Pin_1)*%
X91185000Y-49535000D03*
X65512000Y-48282000D03*
X65512000Y-51382000D03*
X74318000Y-48187000D03*
%TD*%
%TO.N,Net-(C3-Pad1)*%
D33*
X82200000Y-64328000D02*
X82460000Y-64588000D01*
X75371000Y-53200000D02*
X75244000Y-53327000D01*
X78495000Y-64328000D02*
X82200000Y-64328000D01*
D34*
X77100000Y-61150000D02*
X77100000Y-64304000D01*
X77100000Y-54669000D02*
X77118000Y-54687000D01*
X77100000Y-64304000D02*
X77070000Y-64334000D01*
X77100000Y-53200000D02*
X77100000Y-54669000D01*
D33*
X82460000Y-66102000D02*
X82404000Y-66158000D01*
X77100000Y-53200000D02*
X75371000Y-53200000D01*
X78489000Y-64334000D02*
X78495000Y-64328000D01*
X77070000Y-64334000D02*
X78489000Y-64334000D01*
X82460000Y-64588000D02*
X82460000Y-66102000D01*
%TO.N,GND*%
D35*
X74560000Y-50660000D02*
X74550000Y-50650000D01*
X76031000Y-50660000D02*
X74560000Y-50660000D01*
%TO.N,Net-(X1-IN)*%
D36*
X68500000Y-67128000D02*
X70466000Y-67128000D01*
%TO.N,Net-(X1-OUT)*%
X73366000Y-67128000D02*
X75546000Y-67128000D01*
%TO.N,Net-(C8-Pad1)*%
X82404000Y-67128000D02*
X84464000Y-67128000D01*
X80356000Y-67128000D02*
X82404000Y-67128000D01*
%TO.N,Net-(J4-Pin_1)*%
D37*
X65452000Y-51322000D02*
X65512000Y-51382000D01*
X75951000Y-48120000D02*
X74385000Y-48120000D01*
X63814000Y-51322000D02*
X65452000Y-51322000D01*
D33*
X75951000Y-48120000D02*
X75618000Y-47787000D01*
D37*
X93251000Y-49535000D02*
X91185000Y-49535000D01*
X74385000Y-48120000D02*
X74318000Y-48187000D01*
X63814000Y-48282000D02*
X65512000Y-48282000D01*
%TO.N,Net-(D1-A1)*%
D33*
X78751000Y-48120000D02*
X78751000Y-50480000D01*
X78751000Y-50480000D02*
X78931000Y-50660000D01*
X78931000Y-50660000D02*
X78931000Y-53131000D01*
X78931000Y-53131000D02*
X79000000Y-53200000D01*
%TO.N,Net-(J3-CC1)*%
X67230000Y-49250000D02*
X63866000Y-49250000D01*
%TO.N,Net-(J1-In)*%
D36*
X67540000Y-67128000D02*
X61500000Y-67128000D01*
%TO.N,Net-(J2-In)*%
X85424000Y-67128000D02*
X95100000Y-67128000D01*
%TO.N,Net-(J3-CC2)*%
D33*
X63814000Y-50302000D02*
X67012000Y-50302000D01*
%TO.N,Net-(U1-Vb)*%
D35*
X78356000Y-66628000D02*
X78356000Y-65487000D01*
X78356000Y-65487000D02*
X78495000Y-65348000D01*
%TO.N,Net-(C7-Pad2)*%
D36*
X78356000Y-67128000D02*
X76506000Y-67128000D01*
%TD*%
%TA.AperFunction,Conductor*%
%TO.N,GND*%
G36*
X94521243Y-40687669D02*
G01*
X94825061Y-40703591D01*
X94837937Y-40704945D01*
X95135212Y-40752029D01*
X95147896Y-40754724D01*
X95438626Y-40832625D01*
X95450967Y-40836636D01*
X95731935Y-40944489D01*
X95743790Y-40949767D01*
X96011976Y-41086415D01*
X96023192Y-41092891D01*
X96275619Y-41256818D01*
X96286100Y-41264433D01*
X96482849Y-41423757D01*
X96520011Y-41453850D01*
X96529656Y-41462535D01*
X96742464Y-41675343D01*
X96751149Y-41684988D01*
X96940564Y-41918896D01*
X96948183Y-41929384D01*
X97112105Y-42181801D01*
X97118591Y-42193035D01*
X97255231Y-42461206D01*
X97260510Y-42473064D01*
X97368363Y-42754032D01*
X97372374Y-42766375D01*
X97450273Y-43057097D01*
X97452971Y-43069793D01*
X97500052Y-43367046D01*
X97501409Y-43379955D01*
X97517330Y-43683756D01*
X97517500Y-43690245D01*
X97517500Y-66031167D01*
X97497815Y-66098206D01*
X97445011Y-66143961D01*
X97375853Y-66153905D01*
X97323739Y-66130105D01*
X97322245Y-66132288D01*
X97312765Y-66125794D01*
X97209992Y-66080415D01*
X97184865Y-66077500D01*
X92015143Y-66077500D01*
X92015117Y-66077502D01*
X91990012Y-66080413D01*
X91990008Y-66080415D01*
X91887235Y-66125793D01*
X91807794Y-66205234D01*
X91762415Y-66308006D01*
X91762415Y-66308008D01*
X91759500Y-66333131D01*
X91759500Y-66528500D01*
X91739815Y-66595539D01*
X91687011Y-66641294D01*
X91635500Y-66652500D01*
X85932674Y-66652500D01*
X85865635Y-66632815D01*
X85859041Y-66628271D01*
X85807070Y-66589915D01*
X85772157Y-66564148D01*
X85772155Y-66564147D01*
X85646826Y-66520291D01*
X85646814Y-66520289D01*
X85617070Y-66517500D01*
X85617066Y-66517500D01*
X85230934Y-66517500D01*
X85230930Y-66517500D01*
X85201185Y-66520289D01*
X85201173Y-66520291D01*
X85075842Y-66564147D01*
X85075841Y-66564148D01*
X85017633Y-66607108D01*
X84952004Y-66631079D01*
X84883834Y-66615763D01*
X84870367Y-66607108D01*
X84812158Y-66564148D01*
X84812157Y-66564147D01*
X84686826Y-66520291D01*
X84686814Y-66520289D01*
X84657070Y-66517500D01*
X84657066Y-66517500D01*
X84270934Y-66517500D01*
X84270930Y-66517500D01*
X84241185Y-66520289D01*
X84241173Y-66520291D01*
X84115844Y-66564147D01*
X84028959Y-66628271D01*
X83963330Y-66652241D01*
X83955326Y-66652500D01*
X83104476Y-66652500D01*
X83082890Y-66646161D01*
X83060457Y-66644424D01*
X83050010Y-66636506D01*
X83037437Y-66632815D01*
X83022705Y-66615813D01*
X83004772Y-66602223D01*
X83000264Y-66589915D01*
X82991682Y-66580011D01*
X82988479Y-66557741D01*
X82980742Y-66536615D01*
X82983030Y-66519839D01*
X82981738Y-66510853D01*
X82983468Y-66501426D01*
X82985047Y-66494364D01*
X83021662Y-66389729D01*
X83024500Y-66359463D01*
X83024499Y-66318032D01*
X83027491Y-66304660D01*
X83028242Y-66303302D01*
X83028724Y-66299644D01*
X83060501Y-66181057D01*
X83060501Y-66022943D01*
X83060501Y-66015348D01*
X83060500Y-66015330D01*
X83060500Y-64677060D01*
X83060501Y-64677047D01*
X83060501Y-64508945D01*
X83060501Y-64508943D01*
X83044725Y-64450066D01*
X83040500Y-64417973D01*
X83040500Y-64364929D01*
X83037710Y-64335185D01*
X83037710Y-64335181D01*
X83037708Y-64335177D01*
X83037708Y-64335173D01*
X82993852Y-64209844D01*
X82993852Y-64209843D01*
X82914999Y-64103001D01*
X82808157Y-64024148D01*
X82808155Y-64024147D01*
X82738308Y-63999706D01*
X82691582Y-63970346D01*
X82568717Y-63847481D01*
X82568709Y-63847475D01*
X82470918Y-63791016D01*
X82470916Y-63791015D01*
X82431790Y-63768425D01*
X82431789Y-63768424D01*
X82419263Y-63765067D01*
X82279057Y-63727499D01*
X82120943Y-63727499D01*
X82113347Y-63727499D01*
X82113331Y-63727500D01*
X78415937Y-63727500D01*
X78409316Y-63729275D01*
X78377225Y-63733500D01*
X77774500Y-63733500D01*
X77707461Y-63713815D01*
X77661706Y-63661011D01*
X77650500Y-63609500D01*
X77650500Y-61077527D01*
X77650500Y-61077525D01*
X77612984Y-60937515D01*
X77540509Y-60811985D01*
X77438015Y-60709491D01*
X77438013Y-60709490D01*
X77438011Y-60709488D01*
X77312488Y-60637017D01*
X77312489Y-60637017D01*
X77301006Y-60633940D01*
X77172475Y-60599500D01*
X77027525Y-60599500D01*
X76898993Y-60633940D01*
X76887511Y-60637017D01*
X76761988Y-60709488D01*
X76761982Y-60709493D01*
X76659493Y-60811982D01*
X76659488Y-60811988D01*
X76587017Y-60937511D01*
X76587016Y-60937515D01*
X76549500Y-61077525D01*
X76549500Y-61077527D01*
X76549500Y-63899826D01*
X76537898Y-63946611D01*
X76539216Y-63947073D01*
X76492291Y-64081173D01*
X76492289Y-64081185D01*
X76489500Y-64110929D01*
X76489500Y-64163976D01*
X76485275Y-64196068D01*
X76469500Y-64254941D01*
X76469500Y-64413056D01*
X76485275Y-64471930D01*
X76489500Y-64504023D01*
X76489500Y-64557070D01*
X76492289Y-64586814D01*
X76492291Y-64586826D01*
X76536147Y-64712155D01*
X76536148Y-64712157D01*
X76615001Y-64818999D01*
X76721843Y-64897852D01*
X76760003Y-64911204D01*
X76847173Y-64941708D01*
X76847177Y-64941708D01*
X76847181Y-64941710D01*
X76862057Y-64943105D01*
X76876930Y-64944500D01*
X76876934Y-64944500D01*
X77263070Y-64944500D01*
X77276289Y-64943260D01*
X77292819Y-64941710D01*
X77292825Y-64941708D01*
X77293540Y-64941458D01*
X77295486Y-64941127D01*
X77300195Y-64940099D01*
X77300243Y-64940319D01*
X77334494Y-64934500D01*
X77771298Y-64934500D01*
X77838337Y-64954185D01*
X77884092Y-65006989D01*
X77894036Y-65076147D01*
X77888339Y-65099456D01*
X77877258Y-65131121D01*
X77874500Y-65160538D01*
X77874500Y-65535453D01*
X77877258Y-65564874D01*
X77877260Y-65564884D01*
X77920618Y-65688793D01*
X77920620Y-65688796D01*
X77931268Y-65703223D01*
X77955241Y-65768851D01*
X77955500Y-65776859D01*
X77955500Y-66139282D01*
X77935815Y-66206321D01*
X77885962Y-66250681D01*
X77854653Y-66265988D01*
X77854649Y-66265990D01*
X77768988Y-66351651D01*
X77715780Y-66460488D01*
X77705498Y-66531064D01*
X77705175Y-66535532D01*
X77703471Y-66535408D01*
X77685815Y-66595539D01*
X77633011Y-66641294D01*
X77581500Y-66652500D01*
X77014674Y-66652500D01*
X76947635Y-66632815D01*
X76941041Y-66628271D01*
X76889070Y-66589915D01*
X76854157Y-66564148D01*
X76854155Y-66564147D01*
X76728826Y-66520291D01*
X76728814Y-66520289D01*
X76699070Y-66517500D01*
X76699066Y-66517500D01*
X76312934Y-66517500D01*
X76312930Y-66517500D01*
X76283185Y-66520289D01*
X76283173Y-66520291D01*
X76157842Y-66564147D01*
X76157841Y-66564148D01*
X76099633Y-66607108D01*
X76034004Y-66631079D01*
X75965834Y-66615763D01*
X75952367Y-66607108D01*
X75894158Y-66564148D01*
X75894157Y-66564147D01*
X75768826Y-66520291D01*
X75768814Y-66520289D01*
X75739070Y-66517500D01*
X75739066Y-66517500D01*
X75352934Y-66517500D01*
X75352930Y-66517500D01*
X75323185Y-66520289D01*
X75323173Y-66520291D01*
X75197844Y-66564147D01*
X75110959Y-66628271D01*
X75045330Y-66652241D01*
X75037326Y-66652500D01*
X74216833Y-66652500D01*
X74149794Y-66632815D01*
X74129152Y-66616181D01*
X74088765Y-66575794D01*
X73985992Y-66530415D01*
X73960865Y-66527500D01*
X72771143Y-66527500D01*
X72771117Y-66527502D01*
X72746012Y-66530413D01*
X72746008Y-66530415D01*
X72643235Y-66575793D01*
X72563794Y-66655234D01*
X72518415Y-66758006D01*
X72518415Y-66758008D01*
X72515500Y-66783131D01*
X72515500Y-67472856D01*
X72515502Y-67472882D01*
X72518413Y-67497987D01*
X72518415Y-67497991D01*
X72563793Y-67600764D01*
X72563794Y-67600765D01*
X72643235Y-67680206D01*
X72746009Y-67725585D01*
X72771135Y-67728500D01*
X73960864Y-67728499D01*
X73960879Y-67728497D01*
X73960882Y-67728497D01*
X73985987Y-67725586D01*
X73985988Y-67725585D01*
X73985991Y-67725585D01*
X74088765Y-67680206D01*
X74129152Y-67639819D01*
X74190475Y-67606334D01*
X74216833Y-67603500D01*
X75037326Y-67603500D01*
X75104365Y-67623185D01*
X75110959Y-67627729D01*
X75127341Y-67639819D01*
X75197843Y-67691852D01*
X75236003Y-67705204D01*
X75323173Y-67735708D01*
X75323177Y-67735708D01*
X75323181Y-67735710D01*
X75338057Y-67737105D01*
X75352930Y-67738500D01*
X75352934Y-67738500D01*
X75739070Y-67738500D01*
X75752289Y-67737260D01*
X75768819Y-67735710D01*
X75768823Y-67735708D01*
X75768826Y-67735708D01*
X75817836Y-67718557D01*
X75894157Y-67691852D01*
X75952368Y-67648890D01*
X76017995Y-67624920D01*
X76086165Y-67640235D01*
X76099625Y-67648885D01*
X76157843Y-67691852D01*
X76196003Y-67705204D01*
X76283173Y-67735708D01*
X76283177Y-67735708D01*
X76283181Y-67735710D01*
X76298057Y-67737105D01*
X76312930Y-67738500D01*
X76312934Y-67738500D01*
X76699070Y-67738500D01*
X76712289Y-67737260D01*
X76728819Y-67735710D01*
X76728823Y-67735708D01*
X76728826Y-67735708D01*
X76777836Y-67718557D01*
X76854157Y-67691852D01*
X76925450Y-67639234D01*
X76941041Y-67627729D01*
X77006670Y-67603759D01*
X77014674Y-67603500D01*
X78418599Y-67603500D01*
X78418601Y-67603500D01*
X78539536Y-67571095D01*
X78541235Y-67570113D01*
X78543132Y-67569605D01*
X78547050Y-67567983D01*
X78547263Y-67568498D01*
X78603239Y-67553499D01*
X78677950Y-67553499D01*
X78706172Y-67549387D01*
X78748509Y-67543220D01*
X78857347Y-67490012D01*
X78943012Y-67404347D01*
X78996220Y-67295509D01*
X79006500Y-67224949D01*
X79006499Y-67031052D01*
X78996220Y-66960491D01*
X78982516Y-66932460D01*
X78970756Y-66863591D01*
X78982515Y-66823540D01*
X78996220Y-66795509D01*
X79006500Y-66724949D01*
X79006499Y-66531052D01*
X79006406Y-66530415D01*
X78996220Y-66460493D01*
X78996220Y-66460491D01*
X78943012Y-66351653D01*
X78943010Y-66351651D01*
X78943010Y-66351650D01*
X78857350Y-66265990D01*
X78857348Y-66265989D01*
X78857347Y-66265988D01*
X78826037Y-66250681D01*
X78814057Y-66239736D01*
X78799297Y-66232995D01*
X78788796Y-66216655D01*
X78774456Y-66203553D01*
X78769903Y-66187257D01*
X78761523Y-66174217D01*
X78756500Y-66139282D01*
X78756500Y-66005605D01*
X78776185Y-65938566D01*
X78828989Y-65892811D01*
X78839527Y-65888570D01*
X78885794Y-65872381D01*
X78991423Y-65794423D01*
X79069381Y-65688794D01*
X79091061Y-65626836D01*
X79112741Y-65564881D01*
X79112741Y-65564879D01*
X79112741Y-65564874D01*
X79115500Y-65535457D01*
X79115499Y-65160544D01*
X79112741Y-65131121D01*
X79099560Y-65093454D01*
X79095998Y-65023677D01*
X79130726Y-64963050D01*
X79192719Y-64930822D01*
X79216602Y-64928500D01*
X81735500Y-64928500D01*
X81802539Y-64948185D01*
X81848294Y-65000989D01*
X81859500Y-65052500D01*
X81859500Y-65719301D01*
X81839815Y-65786340D01*
X81835273Y-65792931D01*
X81830945Y-65798794D01*
X81830942Y-65798800D01*
X81786339Y-65926266D01*
X81786337Y-65926275D01*
X81783500Y-65956532D01*
X81783500Y-66359460D01*
X81786337Y-66389724D01*
X81786338Y-66389731D01*
X81805099Y-66443346D01*
X81820566Y-66487545D01*
X81824129Y-66557323D01*
X81789400Y-66617951D01*
X81727407Y-66650178D01*
X81703525Y-66652500D01*
X80293399Y-66652500D01*
X80219385Y-66672332D01*
X80172459Y-66684906D01*
X80170755Y-66685891D01*
X80168851Y-66686401D01*
X80164952Y-66688016D01*
X80164739Y-66687502D01*
X80108764Y-66702500D01*
X80034050Y-66702500D01*
X79963493Y-66712779D01*
X79854650Y-66765989D01*
X79768988Y-66851651D01*
X79715780Y-66960488D01*
X79711925Y-66986951D01*
X79705500Y-67031051D01*
X79705500Y-67031055D01*
X79705500Y-67031056D01*
X79705500Y-67224950D01*
X79715779Y-67295506D01*
X79768989Y-67404349D01*
X79854651Y-67490011D01*
X79963488Y-67543219D01*
X79963489Y-67543219D01*
X79963491Y-67543220D01*
X80034051Y-67553500D01*
X80108760Y-67553499D01*
X80164736Y-67568498D01*
X80164950Y-67567983D01*
X80168867Y-67569605D01*
X80170764Y-67570113D01*
X80172464Y-67571095D01*
X80293399Y-67603500D01*
X81880685Y-67603500D01*
X81947724Y-67623185D01*
X81954299Y-67627716D01*
X82019799Y-67676057D01*
X82147271Y-67720662D01*
X82177537Y-67723500D01*
X82630462Y-67723499D01*
X82660729Y-67720662D01*
X82788201Y-67676057D01*
X82853683Y-67627729D01*
X82919310Y-67603759D01*
X82927315Y-67603500D01*
X83955326Y-67603500D01*
X84022365Y-67623185D01*
X84028959Y-67627729D01*
X84045341Y-67639819D01*
X84115843Y-67691852D01*
X84154003Y-67705204D01*
X84241173Y-67735708D01*
X84241177Y-67735708D01*
X84241181Y-67735710D01*
X84256057Y-67737105D01*
X84270930Y-67738500D01*
X84270934Y-67738500D01*
X84657070Y-67738500D01*
X84670289Y-67737260D01*
X84686819Y-67735710D01*
X84686823Y-67735708D01*
X84686826Y-67735708D01*
X84735836Y-67718557D01*
X84812157Y-67691852D01*
X84870368Y-67648890D01*
X84935995Y-67624920D01*
X85004165Y-67640235D01*
X85017625Y-67648885D01*
X85075843Y-67691852D01*
X85114003Y-67705204D01*
X85201173Y-67735708D01*
X85201177Y-67735708D01*
X85201181Y-67735710D01*
X85216057Y-67737105D01*
X85230930Y-67738500D01*
X85230934Y-67738500D01*
X85617070Y-67738500D01*
X85630289Y-67737260D01*
X85646819Y-67735710D01*
X85646823Y-67735708D01*
X85646826Y-67735708D01*
X85695836Y-67718557D01*
X85772157Y-67691852D01*
X85843450Y-67639234D01*
X85859041Y-67627729D01*
X85924670Y-67603759D01*
X85932674Y-67603500D01*
X91635501Y-67603500D01*
X91702540Y-67623185D01*
X91748295Y-67675989D01*
X91759501Y-67727500D01*
X91759501Y-67922856D01*
X91759502Y-67922882D01*
X91762413Y-67947987D01*
X91762415Y-67947991D01*
X91807793Y-68050764D01*
X91807794Y-68050765D01*
X91887235Y-68130206D01*
X91990009Y-68175585D01*
X92015135Y-68178500D01*
X97184864Y-68178499D01*
X97184879Y-68178497D01*
X97184882Y-68178497D01*
X97209987Y-68175586D01*
X97209988Y-68175585D01*
X97209991Y-68175585D01*
X97312765Y-68130206D01*
X97312767Y-68130203D01*
X97322245Y-68123712D01*
X97324473Y-68126965D01*
X97367142Y-68103667D01*
X97436834Y-68108651D01*
X97492767Y-68150523D01*
X97517184Y-68215987D01*
X97517500Y-68224833D01*
X97517500Y-76683754D01*
X97517330Y-76690243D01*
X97501409Y-76994044D01*
X97500052Y-77006953D01*
X97452971Y-77304206D01*
X97450273Y-77316902D01*
X97372374Y-77607624D01*
X97368363Y-77619967D01*
X97260510Y-77900935D01*
X97255231Y-77912793D01*
X97118591Y-78180964D01*
X97112101Y-78192204D01*
X96948188Y-78444609D01*
X96940559Y-78455110D01*
X96751149Y-78689011D01*
X96742464Y-78698656D01*
X96529656Y-78911464D01*
X96520011Y-78920149D01*
X96286110Y-79109559D01*
X96275609Y-79117188D01*
X96023204Y-79281101D01*
X96011964Y-79287591D01*
X95743793Y-79424231D01*
X95731935Y-79429510D01*
X95450967Y-79537363D01*
X95438624Y-79541374D01*
X95147902Y-79619273D01*
X95135206Y-79621971D01*
X94837953Y-79669052D01*
X94825044Y-79670409D01*
X94521244Y-79686330D01*
X94514755Y-79686500D01*
X61521245Y-79686500D01*
X61514756Y-79686330D01*
X61210955Y-79670409D01*
X61198046Y-79669052D01*
X60900793Y-79621971D01*
X60888097Y-79619273D01*
X60597375Y-79541374D01*
X60585032Y-79537363D01*
X60304064Y-79429510D01*
X60292206Y-79424231D01*
X60161585Y-79357676D01*
X60024029Y-79287587D01*
X60012801Y-79281105D01*
X59760384Y-79117183D01*
X59749896Y-79109564D01*
X59515988Y-78920149D01*
X59506343Y-78911464D01*
X59293535Y-78698656D01*
X59284850Y-78689011D01*
X59241713Y-78635741D01*
X59095433Y-78455100D01*
X59087818Y-78444619D01*
X58923891Y-78192192D01*
X58917415Y-78180976D01*
X58780767Y-77912790D01*
X58775489Y-77900935D01*
X58667636Y-77619967D01*
X58663625Y-77607624D01*
X58585726Y-77316902D01*
X58583028Y-77304206D01*
X58572904Y-77240285D01*
X58535945Y-77006937D01*
X58534591Y-76994061D01*
X58518670Y-76690243D01*
X58518500Y-76683754D01*
X58518500Y-68160833D01*
X58538185Y-68093794D01*
X58590989Y-68048039D01*
X58660147Y-68038095D01*
X58723703Y-68067120D01*
X58730181Y-68073152D01*
X58787235Y-68130206D01*
X58890009Y-68175585D01*
X58915135Y-68178500D01*
X64084864Y-68178499D01*
X64084879Y-68178497D01*
X64084882Y-68178497D01*
X64109987Y-68175586D01*
X64109988Y-68175585D01*
X64109991Y-68175585D01*
X64212765Y-68130206D01*
X64292206Y-68050765D01*
X64337585Y-67947991D01*
X64340500Y-67922865D01*
X64340500Y-67727500D01*
X64360185Y-67660461D01*
X64412989Y-67614706D01*
X64464500Y-67603500D01*
X67031326Y-67603500D01*
X67098365Y-67623185D01*
X67104959Y-67627729D01*
X67121341Y-67639819D01*
X67191843Y-67691852D01*
X67230003Y-67705204D01*
X67317173Y-67735708D01*
X67317177Y-67735708D01*
X67317181Y-67735710D01*
X67332057Y-67737105D01*
X67346930Y-67738500D01*
X67346934Y-67738500D01*
X67733070Y-67738500D01*
X67746289Y-67737260D01*
X67762819Y-67735710D01*
X67762823Y-67735708D01*
X67762826Y-67735708D01*
X67811836Y-67718557D01*
X67888157Y-67691852D01*
X67946368Y-67648890D01*
X68011995Y-67624920D01*
X68080165Y-67640235D01*
X68093625Y-67648885D01*
X68151843Y-67691852D01*
X68190003Y-67705204D01*
X68277173Y-67735708D01*
X68277177Y-67735708D01*
X68277181Y-67735710D01*
X68292057Y-67737105D01*
X68306930Y-67738500D01*
X68306934Y-67738500D01*
X68693070Y-67738500D01*
X68706289Y-67737260D01*
X68722819Y-67735710D01*
X68722823Y-67735708D01*
X68722826Y-67735708D01*
X68771836Y-67718557D01*
X68848157Y-67691852D01*
X68919450Y-67639234D01*
X68935041Y-67627729D01*
X69000670Y-67603759D01*
X69008674Y-67603500D01*
X69615167Y-67603500D01*
X69682206Y-67623185D01*
X69702848Y-67639819D01*
X69743235Y-67680206D01*
X69846009Y-67725585D01*
X69871135Y-67728500D01*
X71060864Y-67728499D01*
X71060879Y-67728497D01*
X71060882Y-67728497D01*
X71085987Y-67725586D01*
X71085988Y-67725585D01*
X71085991Y-67725585D01*
X71188765Y-67680206D01*
X71268206Y-67600765D01*
X71313585Y-67497991D01*
X71316500Y-67472865D01*
X71316499Y-66783136D01*
X71316497Y-66783117D01*
X71313586Y-66758012D01*
X71313585Y-66758010D01*
X71313585Y-66758009D01*
X71268206Y-66655235D01*
X71188765Y-66575794D01*
X71146932Y-66557323D01*
X71085992Y-66530415D01*
X71060865Y-66527500D01*
X69871143Y-66527500D01*
X69871117Y-66527502D01*
X69846012Y-66530413D01*
X69846008Y-66530415D01*
X69743235Y-66575793D01*
X69743234Y-66575794D01*
X69702848Y-66616181D01*
X69641525Y-66649666D01*
X69615167Y-66652500D01*
X69008674Y-66652500D01*
X68941635Y-66632815D01*
X68935041Y-66628271D01*
X68883070Y-66589915D01*
X68848157Y-66564148D01*
X68848155Y-66564147D01*
X68722826Y-66520291D01*
X68722814Y-66520289D01*
X68693070Y-66517500D01*
X68693066Y-66517500D01*
X68306934Y-66517500D01*
X68306930Y-66517500D01*
X68277185Y-66520289D01*
X68277173Y-66520291D01*
X68151842Y-66564147D01*
X68151841Y-66564148D01*
X68093633Y-66607108D01*
X68028004Y-66631079D01*
X67959834Y-66615763D01*
X67946367Y-66607108D01*
X67888158Y-66564148D01*
X67888157Y-66564147D01*
X67762826Y-66520291D01*
X67762814Y-66520289D01*
X67733070Y-66517500D01*
X67733066Y-66517500D01*
X67346934Y-66517500D01*
X67346930Y-66517500D01*
X67317185Y-66520289D01*
X67317173Y-66520291D01*
X67191844Y-66564147D01*
X67104959Y-66628271D01*
X67039330Y-66652241D01*
X67031326Y-66652500D01*
X64464499Y-66652500D01*
X64397460Y-66632815D01*
X64351705Y-66580011D01*
X64340499Y-66528500D01*
X64340499Y-66333143D01*
X64340499Y-66333136D01*
X64338444Y-66315412D01*
X64337586Y-66308012D01*
X64337585Y-66308010D01*
X64337585Y-66308009D01*
X64292206Y-66205235D01*
X64212765Y-66125794D01*
X64163436Y-66104013D01*
X64109992Y-66080415D01*
X64084865Y-66077500D01*
X58915143Y-66077500D01*
X58915117Y-66077502D01*
X58890012Y-66080413D01*
X58890008Y-66080415D01*
X58787235Y-66125793D01*
X58787234Y-66125794D01*
X58730181Y-66182848D01*
X58668858Y-66216333D01*
X58599166Y-66211349D01*
X58543233Y-66169477D01*
X58518816Y-66104013D01*
X58518500Y-66095167D01*
X58518500Y-52808898D01*
X74443500Y-52808898D01*
X74443500Y-53845102D01*
X74446849Y-53872989D01*
X74454122Y-53933561D01*
X74509639Y-54074343D01*
X74601077Y-54194922D01*
X74721656Y-54286360D01*
X74721657Y-54286360D01*
X74721658Y-54286361D01*
X74862436Y-54341877D01*
X74950898Y-54352500D01*
X74950903Y-54352500D01*
X75537097Y-54352500D01*
X75537102Y-54352500D01*
X75625564Y-54341877D01*
X75766342Y-54286361D01*
X75886922Y-54194922D01*
X75978361Y-54074342D01*
X76033877Y-53933564D01*
X76033878Y-53933558D01*
X76036742Y-53909715D01*
X76037332Y-53908337D01*
X76037119Y-53906853D01*
X76051061Y-53876323D01*
X76064279Y-53845501D01*
X76065520Y-53844661D01*
X76066144Y-53843297D01*
X76094368Y-53825158D01*
X76122162Y-53806368D01*
X76124069Y-53806071D01*
X76124922Y-53805523D01*
X76159857Y-53800500D01*
X76223338Y-53800500D01*
X76290377Y-53820185D01*
X76336132Y-53872989D01*
X76338693Y-53879011D01*
X76365638Y-53947342D01*
X76457077Y-54067922D01*
X76500425Y-54100793D01*
X76541948Y-54156985D01*
X76549500Y-54199597D01*
X76549500Y-54741475D01*
X76554323Y-54759474D01*
X76587016Y-54881485D01*
X76659490Y-55007015D01*
X76779985Y-55127510D01*
X76779987Y-55127511D01*
X76779991Y-55127514D01*
X76874335Y-55181983D01*
X76874338Y-55181984D01*
X76905515Y-55199984D01*
X77045525Y-55237500D01*
X77045526Y-55237500D01*
X77045528Y-55237500D01*
X77190472Y-55237500D01*
X77190474Y-55237500D01*
X77190475Y-55237500D01*
X77330485Y-55199984D01*
X77361662Y-55181984D01*
X77456015Y-55127510D01*
X77558510Y-55025015D01*
X77630984Y-54899485D01*
X77668500Y-54759474D01*
X77668500Y-54614526D01*
X77661992Y-54590240D01*
X77654725Y-54563115D01*
X77650500Y-54531023D01*
X77650500Y-54199597D01*
X77670185Y-54132558D01*
X77699575Y-54100793D01*
X77742922Y-54067922D01*
X77834360Y-53947343D01*
X77834359Y-53947343D01*
X77834361Y-53947342D01*
X77889877Y-53806564D01*
X77900500Y-53718102D01*
X77900500Y-52681898D01*
X77889877Y-52593436D01*
X77834361Y-52452658D01*
X77834360Y-52452657D01*
X77834360Y-52452656D01*
X77742922Y-52332077D01*
X77622343Y-52240639D01*
X77526192Y-52202722D01*
X77481564Y-52185123D01*
X77481563Y-52185122D01*
X77481561Y-52185122D01*
X77435926Y-52179642D01*
X77393102Y-52174500D01*
X76806898Y-52174500D01*
X76767853Y-52179188D01*
X76718438Y-52185122D01*
X76577656Y-52240639D01*
X76457077Y-52332077D01*
X76365638Y-52452657D01*
X76338693Y-52520989D01*
X76325784Y-52537580D01*
X76317051Y-52556703D01*
X76304759Y-52564602D01*
X76295787Y-52576134D01*
X76275957Y-52583112D01*
X76258273Y-52594477D01*
X76233568Y-52598029D01*
X76229880Y-52599327D01*
X76223338Y-52599500D01*
X76054997Y-52599500D01*
X75987958Y-52579815D01*
X75956193Y-52550425D01*
X75886922Y-52459077D01*
X75766343Y-52367639D01*
X75625561Y-52312122D01*
X75579926Y-52306642D01*
X75537102Y-52301500D01*
X74950898Y-52301500D01*
X74911853Y-52306188D01*
X74862438Y-52312122D01*
X74721656Y-52367639D01*
X74601077Y-52459077D01*
X74509639Y-52579656D01*
X74454122Y-52720438D01*
X74448188Y-52769853D01*
X74443500Y-52808898D01*
X58518500Y-52808898D01*
X58518500Y-48034127D01*
X62713500Y-48034127D01*
X62713500Y-48034134D01*
X62713500Y-48034135D01*
X62713500Y-48529870D01*
X62713501Y-48529876D01*
X62719908Y-48589483D01*
X62770202Y-48724328D01*
X62770206Y-48724335D01*
X62777704Y-48734351D01*
X62802121Y-48799816D01*
X62787269Y-48868088D01*
X62777705Y-48882969D01*
X62767372Y-48896774D01*
X62719588Y-49024886D01*
X62719587Y-49024889D01*
X62713500Y-49081498D01*
X62713500Y-49522481D01*
X62713501Y-49522490D01*
X62719587Y-49579114D01*
X62748108Y-49655579D01*
X62767372Y-49707226D01*
X62775412Y-49717967D01*
X62782692Y-49727692D01*
X62807107Y-49793157D01*
X62792254Y-49861430D01*
X62782692Y-49876308D01*
X62767372Y-49896774D01*
X62726204Y-50007149D01*
X62719587Y-50024889D01*
X62713500Y-50081498D01*
X62713500Y-50522481D01*
X62713501Y-50522490D01*
X62719587Y-50579114D01*
X62751615Y-50664980D01*
X62767372Y-50707226D01*
X62774714Y-50717034D01*
X62777706Y-50721031D01*
X62802121Y-50786496D01*
X62787268Y-50854769D01*
X62777707Y-50869646D01*
X62770202Y-50879671D01*
X62723651Y-51004483D01*
X62719909Y-51014517D01*
X62713500Y-51074127D01*
X62713500Y-51074134D01*
X62713500Y-51074135D01*
X62713500Y-51569870D01*
X62713501Y-51569876D01*
X62719908Y-51629483D01*
X62770202Y-51764328D01*
X62770206Y-51764335D01*
X62856452Y-51879544D01*
X62856455Y-51879547D01*
X62971664Y-51965793D01*
X62971671Y-51965797D01*
X63016618Y-51982561D01*
X63106517Y-52016091D01*
X63166127Y-52022500D01*
X63735004Y-52022499D01*
X63735018Y-52022500D01*
X63745007Y-52022500D01*
X65203145Y-52022500D01*
X65250597Y-52031938D01*
X65307672Y-52055580D01*
X65307676Y-52055580D01*
X65307677Y-52055581D01*
X65443003Y-52082500D01*
X65443006Y-52082500D01*
X65580996Y-52082500D01*
X65672042Y-52064389D01*
X65716329Y-52055580D01*
X65843811Y-52002775D01*
X65958543Y-51926114D01*
X66056114Y-51828543D01*
X66132775Y-51713811D01*
X66185580Y-51586329D01*
X66212500Y-51450994D01*
X66212500Y-51313006D01*
X66212500Y-51313003D01*
X66185581Y-51177677D01*
X66185580Y-51177676D01*
X66185580Y-51177672D01*
X66142617Y-51073951D01*
X66135149Y-51004483D01*
X66166424Y-50942004D01*
X66226513Y-50906352D01*
X66257179Y-50902500D01*
X66636899Y-50902500D01*
X66703938Y-50922185D01*
X66736669Y-50952866D01*
X66783576Y-51016423D01*
X66829328Y-51050189D01*
X66889206Y-51094381D01*
X66930511Y-51108834D01*
X67013119Y-51137741D01*
X67020796Y-51138460D01*
X67042543Y-51140500D01*
X67417456Y-51140499D01*
X67446879Y-51137741D01*
X67570794Y-51094381D01*
X67676423Y-51016423D01*
X67754381Y-50910794D01*
X67794781Y-50795339D01*
X67797741Y-50786881D01*
X67797741Y-50786879D01*
X67797777Y-50786496D01*
X67800500Y-50757457D01*
X67800499Y-50282544D01*
X67797741Y-50253121D01*
X67754381Y-50129206D01*
X67676423Y-50023577D01*
X67623840Y-49984769D01*
X67581591Y-49929123D01*
X67576132Y-49859467D01*
X67609199Y-49797918D01*
X67623836Y-49785233D01*
X67676423Y-49746423D01*
X67754381Y-49640794D01*
X67776061Y-49578836D01*
X67797741Y-49516881D01*
X67797741Y-49516878D01*
X67800498Y-49487476D01*
X67800500Y-49487457D01*
X67800499Y-49457345D01*
X67804724Y-49425250D01*
X67830500Y-49329057D01*
X67830500Y-49170943D01*
X67804724Y-49074745D01*
X67800499Y-49042652D01*
X67800499Y-49012545D01*
X67798469Y-48990886D01*
X67797741Y-48983121D01*
X67754381Y-48859206D01*
X67701904Y-48788102D01*
X67676423Y-48753576D01*
X67604860Y-48700761D01*
X67570794Y-48675619D01*
X67570792Y-48675618D01*
X67446880Y-48632258D01*
X67417461Y-48629500D01*
X67042546Y-48629500D01*
X67013125Y-48632258D01*
X67013117Y-48632259D01*
X66983732Y-48642542D01*
X66942779Y-48649500D01*
X66303277Y-48649500D01*
X66236238Y-48629815D01*
X66190483Y-48577011D01*
X66180539Y-48507853D01*
X66184617Y-48489504D01*
X66185580Y-48486329D01*
X66212500Y-48350995D01*
X66212500Y-48255996D01*
X73617499Y-48255996D01*
X73644418Y-48391322D01*
X73644421Y-48391332D01*
X73697222Y-48518807D01*
X73773887Y-48633545D01*
X73871454Y-48731112D01*
X73986192Y-48807777D01*
X74110355Y-48859206D01*
X74113672Y-48860580D01*
X74113676Y-48860580D01*
X74113677Y-48860581D01*
X74249003Y-48887500D01*
X74249006Y-48887500D01*
X74386996Y-48887500D01*
X74484583Y-48868088D01*
X74522328Y-48860580D01*
X74585291Y-48834500D01*
X74596303Y-48829939D01*
X74643755Y-48820500D01*
X74929620Y-48820500D01*
X74996659Y-48840185D01*
X75042414Y-48892989D01*
X75044974Y-48899010D01*
X75091636Y-49017337D01*
X75091638Y-49017341D01*
X75183077Y-49137922D01*
X75303656Y-49229360D01*
X75303657Y-49229360D01*
X75303658Y-49229361D01*
X75444436Y-49284877D01*
X75532898Y-49295500D01*
X75532903Y-49295500D01*
X76369097Y-49295500D01*
X76369102Y-49295500D01*
X76457564Y-49284877D01*
X76598342Y-49229361D01*
X76718922Y-49137922D01*
X76810361Y-49017342D01*
X76865877Y-48876564D01*
X76876500Y-48788102D01*
X76876500Y-47451898D01*
X77825500Y-47451898D01*
X77825500Y-48788102D01*
X77827863Y-48807777D01*
X77836122Y-48876561D01*
X77836122Y-48876563D01*
X77836123Y-48876564D01*
X77844093Y-48896774D01*
X77891639Y-49017343D01*
X77983077Y-49137922D01*
X78028172Y-49172118D01*
X78101426Y-49227668D01*
X78142948Y-49283859D01*
X78150500Y-49326471D01*
X78150500Y-49758997D01*
X78130815Y-49826036D01*
X78125304Y-49833922D01*
X78046639Y-49937656D01*
X77991122Y-50078438D01*
X77985188Y-50127853D01*
X77980500Y-50166898D01*
X77980500Y-51153102D01*
X77983451Y-51177677D01*
X77991122Y-51241561D01*
X78046639Y-51382343D01*
X78138077Y-51502922D01*
X78248058Y-51586323D01*
X78258658Y-51594361D01*
X78258659Y-51594361D01*
X78266050Y-51598517D01*
X78264419Y-51601417D01*
X78307088Y-51634573D01*
X78330323Y-51700466D01*
X78330500Y-51707085D01*
X78330500Y-52325426D01*
X78310815Y-52392465D01*
X78305304Y-52400351D01*
X78265639Y-52452656D01*
X78210122Y-52593438D01*
X78204188Y-52642853D01*
X78199500Y-52681898D01*
X78199500Y-53718102D01*
X78205126Y-53764954D01*
X78210122Y-53806561D01*
X78210122Y-53806563D01*
X78210123Y-53806564D01*
X78217456Y-53825158D01*
X78265639Y-53947343D01*
X78357077Y-54067922D01*
X78477656Y-54159360D01*
X78477657Y-54159360D01*
X78477658Y-54159361D01*
X78618436Y-54214877D01*
X78706898Y-54225500D01*
X78706903Y-54225500D01*
X79293097Y-54225500D01*
X79293102Y-54225500D01*
X79381564Y-54214877D01*
X79522342Y-54159361D01*
X79642922Y-54067922D01*
X79734361Y-53947342D01*
X79789877Y-53806564D01*
X79800500Y-53718102D01*
X79800500Y-52681898D01*
X79789877Y-52593436D01*
X79734361Y-52452658D01*
X79734360Y-52452657D01*
X79734360Y-52452656D01*
X79642925Y-52332082D01*
X79642920Y-52332076D01*
X79580574Y-52284797D01*
X79539051Y-52228604D01*
X79531500Y-52185994D01*
X79531500Y-51707085D01*
X79551185Y-51640046D01*
X79596985Y-51600359D01*
X79595950Y-51598517D01*
X79603336Y-51594363D01*
X79603342Y-51594361D01*
X79723922Y-51502922D01*
X79815361Y-51382342D01*
X79870877Y-51241564D01*
X79881500Y-51153102D01*
X79881500Y-50166898D01*
X79870877Y-50078436D01*
X79815361Y-49937658D01*
X79815360Y-49937657D01*
X79815360Y-49937656D01*
X79723922Y-49817077D01*
X79603343Y-49725639D01*
X79498841Y-49684429D01*
X79462564Y-49670123D01*
X79462562Y-49670122D01*
X79462558Y-49670121D01*
X79460714Y-49669900D01*
X79459337Y-49669309D01*
X79457853Y-49669523D01*
X79454952Y-49668198D01*
X79454852Y-49668173D01*
X79454856Y-49668154D01*
X79427320Y-49655579D01*
X79396500Y-49642362D01*
X79395660Y-49641120D01*
X79394297Y-49640498D01*
X79376154Y-49612267D01*
X79370562Y-49603995D01*
X90484499Y-49603995D01*
X90511418Y-49739322D01*
X90511421Y-49739332D01*
X90564221Y-49866804D01*
X90564228Y-49866817D01*
X90640885Y-49981541D01*
X90640888Y-49981545D01*
X90738454Y-50079111D01*
X90738458Y-50079114D01*
X90853182Y-50155771D01*
X90853195Y-50155778D01*
X90980667Y-50208578D01*
X90980672Y-50208580D01*
X90980676Y-50208580D01*
X90980677Y-50208581D01*
X91116004Y-50235500D01*
X91116007Y-50235500D01*
X93319995Y-50235500D01*
X93411041Y-50217389D01*
X93455328Y-50208580D01*
X93582811Y-50155775D01*
X93656817Y-50106324D01*
X93684752Y-50092386D01*
X93697882Y-50087793D01*
X93807150Y-50007150D01*
X93887793Y-49897882D01*
X93913512Y-49824381D01*
X93932646Y-49769701D01*
X93932646Y-49769699D01*
X93935500Y-49739269D01*
X93935500Y-49696641D01*
X93937883Y-49672449D01*
X93951500Y-49603995D01*
X93951500Y-49466004D01*
X93937883Y-49397550D01*
X93935500Y-49373358D01*
X93935500Y-49330730D01*
X93932646Y-49300300D01*
X93932646Y-49300298D01*
X93887793Y-49172119D01*
X93887792Y-49172117D01*
X93826049Y-49088458D01*
X93807150Y-49062850D01*
X93697882Y-48982207D01*
X93684746Y-48977610D01*
X93656816Y-48963674D01*
X93582811Y-48914225D01*
X93582804Y-48914221D01*
X93455332Y-48861421D01*
X93455322Y-48861418D01*
X93319995Y-48834500D01*
X93319993Y-48834500D01*
X91116007Y-48834500D01*
X91116005Y-48834500D01*
X90980677Y-48861418D01*
X90980667Y-48861421D01*
X90853195Y-48914221D01*
X90853182Y-48914228D01*
X90738458Y-48990885D01*
X90738454Y-48990888D01*
X90640888Y-49088454D01*
X90640885Y-49088458D01*
X90564228Y-49203182D01*
X90564221Y-49203195D01*
X90511421Y-49330667D01*
X90511418Y-49330677D01*
X90484500Y-49466004D01*
X90484500Y-49466007D01*
X90484500Y-49603993D01*
X90484500Y-49603995D01*
X90484499Y-49603995D01*
X79370562Y-49603995D01*
X79357368Y-49584479D01*
X79357071Y-49582573D01*
X79356523Y-49581720D01*
X79351500Y-49546785D01*
X79351500Y-49326471D01*
X79371185Y-49259432D01*
X79400572Y-49227669D01*
X79518922Y-49137922D01*
X79610361Y-49017342D01*
X79665877Y-48876564D01*
X79676500Y-48788102D01*
X79676500Y-47451898D01*
X79665877Y-47363436D01*
X79610361Y-47222658D01*
X79610360Y-47222657D01*
X79610360Y-47222656D01*
X79518922Y-47102077D01*
X79398343Y-47010639D01*
X79257561Y-46955122D01*
X79211926Y-46949642D01*
X79169102Y-46944500D01*
X78332898Y-46944500D01*
X78293853Y-46949188D01*
X78244438Y-46955122D01*
X78103656Y-47010639D01*
X77983077Y-47102077D01*
X77891639Y-47222656D01*
X77836122Y-47363438D01*
X77832196Y-47396134D01*
X77825500Y-47451898D01*
X76876500Y-47451898D01*
X76865877Y-47363436D01*
X76810361Y-47222658D01*
X76810360Y-47222657D01*
X76810360Y-47222656D01*
X76718922Y-47102077D01*
X76598343Y-47010639D01*
X76457561Y-46955122D01*
X76411926Y-46949642D01*
X76369102Y-46944500D01*
X75532898Y-46944500D01*
X75493853Y-46949188D01*
X75444438Y-46955122D01*
X75303656Y-47010639D01*
X75183077Y-47102077D01*
X75091638Y-47222658D01*
X75091637Y-47222660D01*
X75044974Y-47340990D01*
X75002069Y-47396134D01*
X74936161Y-47419327D01*
X74929620Y-47419500D01*
X74316003Y-47419500D01*
X74207590Y-47441065D01*
X74207589Y-47441065D01*
X74194131Y-47443742D01*
X74180673Y-47446419D01*
X74143330Y-47461887D01*
X74053189Y-47499224D01*
X74011960Y-47526772D01*
X73984412Y-47545180D01*
X73984411Y-47545181D01*
X73938458Y-47575884D01*
X73938453Y-47575888D01*
X73773887Y-47740454D01*
X73697222Y-47855192D01*
X73644421Y-47982667D01*
X73644418Y-47982677D01*
X73617500Y-48118003D01*
X73617500Y-48118006D01*
X73617500Y-48255994D01*
X73617500Y-48255996D01*
X73617499Y-48255996D01*
X66212500Y-48255996D01*
X66212500Y-48213004D01*
X66212499Y-48213002D01*
X66197204Y-48136105D01*
X66185581Y-48077677D01*
X66185580Y-48077676D01*
X66185580Y-48077672D01*
X66185578Y-48077667D01*
X66132778Y-47950195D01*
X66132771Y-47950182D01*
X66056114Y-47835458D01*
X66056111Y-47835454D01*
X65958545Y-47737888D01*
X65958541Y-47737885D01*
X65843817Y-47661228D01*
X65843804Y-47661221D01*
X65716332Y-47608421D01*
X65716322Y-47608418D01*
X65580995Y-47581500D01*
X65580993Y-47581500D01*
X63745007Y-47581500D01*
X63745004Y-47581500D01*
X63166129Y-47581500D01*
X63166123Y-47581501D01*
X63106516Y-47587908D01*
X62971671Y-47638202D01*
X62971664Y-47638206D01*
X62856455Y-47724452D01*
X62856452Y-47724455D01*
X62770206Y-47839664D01*
X62770202Y-47839671D01*
X62719910Y-47974513D01*
X62719909Y-47974517D01*
X62713500Y-48034127D01*
X58518500Y-48034127D01*
X58518500Y-43690245D01*
X58518670Y-43683756D01*
X58521953Y-43621108D01*
X58534591Y-43379936D01*
X58535945Y-43367064D01*
X58583030Y-43069783D01*
X58585723Y-43057107D01*
X58663627Y-42766367D01*
X58667636Y-42754032D01*
X58775493Y-42473054D01*
X58780763Y-42461215D01*
X58917419Y-42193014D01*
X58923885Y-42181815D01*
X59087824Y-41929371D01*
X59095426Y-41918908D01*
X59284858Y-41684978D01*
X59293525Y-41675353D01*
X59506353Y-41462525D01*
X59515978Y-41453858D01*
X59749908Y-41264426D01*
X59760371Y-41256824D01*
X60012815Y-41092885D01*
X60024014Y-41086419D01*
X60292215Y-40949763D01*
X60304054Y-40944493D01*
X60585039Y-40836633D01*
X60597367Y-40832627D01*
X60888107Y-40754723D01*
X60900783Y-40752030D01*
X61198064Y-40704945D01*
X61210936Y-40703591D01*
X61514756Y-40687669D01*
X61521245Y-40687500D01*
X61583892Y-40687500D01*
X94452108Y-40687500D01*
X94514755Y-40687500D01*
X94521243Y-40687669D01*
G37*
%TD.AperFunction*%
%TD*%
M02*
