%TF.GenerationSoftware,KiCad,Pcbnew,10.0.1*%
%TF.CreationDate,2026-04-30T02:01:38+08:00*%
%TF.ProjectId,pre_filter,7072655f-6669-46c7-9465-722e6b696361,rev?*%
%TF.SameCoordinates,Original*%
%TF.FileFunction,Legend,Top*%
%TF.FilePolarity,Positive*%
%FSLAX46Y46*%
G04 Gerber Fmt 4.6, Leading zero omitted, Abs format (unit mm)*
G04 Created by KiCad (PCBNEW 10.0.1) date 2026-04-30 02:01:38*
%MOMM*%
%LPD*%
G01*
G04 APERTURE LIST*
%ADD10C,0.100000*%
%ADD11C,0.150000*%
%ADD12C,0.120000*%
G04 APERTURE END LIST*
D10*
X91804884Y-51626466D02*
X92566789Y-51626466D01*
X92185836Y-52007419D02*
X92185836Y-51245514D01*
D11*
X75407333Y-63423580D02*
X75359714Y-63471200D01*
X75359714Y-63471200D02*
X75216857Y-63518819D01*
X75216857Y-63518819D02*
X75121619Y-63518819D01*
X75121619Y-63518819D02*
X74978762Y-63471200D01*
X74978762Y-63471200D02*
X74883524Y-63375961D01*
X74883524Y-63375961D02*
X74835905Y-63280723D01*
X74835905Y-63280723D02*
X74788286Y-63090247D01*
X74788286Y-63090247D02*
X74788286Y-62947390D01*
X74788286Y-62947390D02*
X74835905Y-62756914D01*
X74835905Y-62756914D02*
X74883524Y-62661676D01*
X74883524Y-62661676D02*
X74978762Y-62566438D01*
X74978762Y-62566438D02*
X75121619Y-62518819D01*
X75121619Y-62518819D02*
X75216857Y-62518819D01*
X75216857Y-62518819D02*
X75359714Y-62566438D01*
X75359714Y-62566438D02*
X75407333Y-62614057D01*
X75740667Y-62518819D02*
X76359714Y-62518819D01*
X76359714Y-62518819D02*
X76026381Y-62899771D01*
X76026381Y-62899771D02*
X76169238Y-62899771D01*
X76169238Y-62899771D02*
X76264476Y-62947390D01*
X76264476Y-62947390D02*
X76312095Y-62995009D01*
X76312095Y-62995009D02*
X76359714Y-63090247D01*
X76359714Y-63090247D02*
X76359714Y-63328342D01*
X76359714Y-63328342D02*
X76312095Y-63423580D01*
X76312095Y-63423580D02*
X76264476Y-63471200D01*
X76264476Y-63471200D02*
X76169238Y-63518819D01*
X76169238Y-63518819D02*
X75883524Y-63518819D01*
X75883524Y-63518819D02*
X75788286Y-63471200D01*
X75788286Y-63471200D02*
X75740667Y-63423580D01*
X81833333Y-70054819D02*
X81357143Y-70054819D01*
X81357143Y-70054819D02*
X81357143Y-69054819D01*
X82690476Y-70054819D02*
X82119048Y-70054819D01*
X82404762Y-70054819D02*
X82404762Y-69054819D01*
X82404762Y-69054819D02*
X82309524Y-69197676D01*
X82309524Y-69197676D02*
X82214286Y-69292914D01*
X82214286Y-69292914D02*
X82119048Y-69340533D01*
X80582666Y-48051009D02*
X80249333Y-48051009D01*
X80249333Y-48574819D02*
X80249333Y-47574819D01*
X80249333Y-47574819D02*
X80725523Y-47574819D01*
X81630285Y-48574819D02*
X81058857Y-48574819D01*
X81344571Y-48574819D02*
X81344571Y-47574819D01*
X81344571Y-47574819D02*
X81249333Y-47717676D01*
X81249333Y-47717676D02*
X81154095Y-47812914D01*
X81154095Y-47812914D02*
X81058857Y-47860533D01*
X67853333Y-65201580D02*
X67805714Y-65249200D01*
X67805714Y-65249200D02*
X67662857Y-65296819D01*
X67662857Y-65296819D02*
X67567619Y-65296819D01*
X67567619Y-65296819D02*
X67424762Y-65249200D01*
X67424762Y-65249200D02*
X67329524Y-65153961D01*
X67329524Y-65153961D02*
X67281905Y-65058723D01*
X67281905Y-65058723D02*
X67234286Y-64868247D01*
X67234286Y-64868247D02*
X67234286Y-64725390D01*
X67234286Y-64725390D02*
X67281905Y-64534914D01*
X67281905Y-64534914D02*
X67329524Y-64439676D01*
X67329524Y-64439676D02*
X67424762Y-64344438D01*
X67424762Y-64344438D02*
X67567619Y-64296819D01*
X67567619Y-64296819D02*
X67662857Y-64296819D01*
X67662857Y-64296819D02*
X67805714Y-64344438D01*
X67805714Y-64344438D02*
X67853333Y-64392057D01*
X68710476Y-64296819D02*
X68520000Y-64296819D01*
X68520000Y-64296819D02*
X68424762Y-64344438D01*
X68424762Y-64344438D02*
X68377143Y-64392057D01*
X68377143Y-64392057D02*
X68281905Y-64534914D01*
X68281905Y-64534914D02*
X68234286Y-64725390D01*
X68234286Y-64725390D02*
X68234286Y-65106342D01*
X68234286Y-65106342D02*
X68281905Y-65201580D01*
X68281905Y-65201580D02*
X68329524Y-65249200D01*
X68329524Y-65249200D02*
X68424762Y-65296819D01*
X68424762Y-65296819D02*
X68615238Y-65296819D01*
X68615238Y-65296819D02*
X68710476Y-65249200D01*
X68710476Y-65249200D02*
X68758095Y-65201580D01*
X68758095Y-65201580D02*
X68805714Y-65106342D01*
X68805714Y-65106342D02*
X68805714Y-64868247D01*
X68805714Y-64868247D02*
X68758095Y-64773009D01*
X68758095Y-64773009D02*
X68710476Y-64725390D01*
X68710476Y-64725390D02*
X68615238Y-64677771D01*
X68615238Y-64677771D02*
X68424762Y-64677771D01*
X68424762Y-64677771D02*
X68329524Y-64725390D01*
X68329524Y-64725390D02*
X68281905Y-64773009D01*
X68281905Y-64773009D02*
X68234286Y-64868247D01*
X84805333Y-69957580D02*
X84757714Y-70005200D01*
X84757714Y-70005200D02*
X84614857Y-70052819D01*
X84614857Y-70052819D02*
X84519619Y-70052819D01*
X84519619Y-70052819D02*
X84376762Y-70005200D01*
X84376762Y-70005200D02*
X84281524Y-69909961D01*
X84281524Y-69909961D02*
X84233905Y-69814723D01*
X84233905Y-69814723D02*
X84186286Y-69624247D01*
X84186286Y-69624247D02*
X84186286Y-69481390D01*
X84186286Y-69481390D02*
X84233905Y-69290914D01*
X84233905Y-69290914D02*
X84281524Y-69195676D01*
X84281524Y-69195676D02*
X84376762Y-69100438D01*
X84376762Y-69100438D02*
X84519619Y-69052819D01*
X84519619Y-69052819D02*
X84614857Y-69052819D01*
X84614857Y-69052819D02*
X84757714Y-69100438D01*
X84757714Y-69100438D02*
X84805333Y-69148057D01*
X85376762Y-69481390D02*
X85281524Y-69433771D01*
X85281524Y-69433771D02*
X85233905Y-69386152D01*
X85233905Y-69386152D02*
X85186286Y-69290914D01*
X85186286Y-69290914D02*
X85186286Y-69243295D01*
X85186286Y-69243295D02*
X85233905Y-69148057D01*
X85233905Y-69148057D02*
X85281524Y-69100438D01*
X85281524Y-69100438D02*
X85376762Y-69052819D01*
X85376762Y-69052819D02*
X85567238Y-69052819D01*
X85567238Y-69052819D02*
X85662476Y-69100438D01*
X85662476Y-69100438D02*
X85710095Y-69148057D01*
X85710095Y-69148057D02*
X85757714Y-69243295D01*
X85757714Y-69243295D02*
X85757714Y-69290914D01*
X85757714Y-69290914D02*
X85710095Y-69386152D01*
X85710095Y-69386152D02*
X85662476Y-69433771D01*
X85662476Y-69433771D02*
X85567238Y-69481390D01*
X85567238Y-69481390D02*
X85376762Y-69481390D01*
X85376762Y-69481390D02*
X85281524Y-69529009D01*
X85281524Y-69529009D02*
X85233905Y-69576628D01*
X85233905Y-69576628D02*
X85186286Y-69671866D01*
X85186286Y-69671866D02*
X85186286Y-69862342D01*
X85186286Y-69862342D02*
X85233905Y-69957580D01*
X85233905Y-69957580D02*
X85281524Y-70005200D01*
X85281524Y-70005200D02*
X85376762Y-70052819D01*
X85376762Y-70052819D02*
X85567238Y-70052819D01*
X85567238Y-70052819D02*
X85662476Y-70005200D01*
X85662476Y-70005200D02*
X85710095Y-69957580D01*
X85710095Y-69957580D02*
X85757714Y-69862342D01*
X85757714Y-69862342D02*
X85757714Y-69671866D01*
X85757714Y-69671866D02*
X85710095Y-69576628D01*
X85710095Y-69576628D02*
X85662476Y-69529009D01*
X85662476Y-69529009D02*
X85567238Y-69481390D01*
X80506666Y-53258009D02*
X80173333Y-53258009D01*
X80173333Y-53781819D02*
X80173333Y-52781819D01*
X80173333Y-52781819D02*
X80649523Y-52781819D01*
X81363809Y-53258009D02*
X81506666Y-53305628D01*
X81506666Y-53305628D02*
X81554285Y-53353247D01*
X81554285Y-53353247D02*
X81601904Y-53448485D01*
X81601904Y-53448485D02*
X81601904Y-53591342D01*
X81601904Y-53591342D02*
X81554285Y-53686580D01*
X81554285Y-53686580D02*
X81506666Y-53734200D01*
X81506666Y-53734200D02*
X81411428Y-53781819D01*
X81411428Y-53781819D02*
X81030476Y-53781819D01*
X81030476Y-53781819D02*
X81030476Y-52781819D01*
X81030476Y-52781819D02*
X81363809Y-52781819D01*
X81363809Y-52781819D02*
X81459047Y-52829438D01*
X81459047Y-52829438D02*
X81506666Y-52877057D01*
X81506666Y-52877057D02*
X81554285Y-52972295D01*
X81554285Y-52972295D02*
X81554285Y-53067533D01*
X81554285Y-53067533D02*
X81506666Y-53162771D01*
X81506666Y-53162771D02*
X81459047Y-53210390D01*
X81459047Y-53210390D02*
X81363809Y-53258009D01*
X81363809Y-53258009D02*
X81030476Y-53258009D01*
X82554285Y-53781819D02*
X81982857Y-53781819D01*
X82268571Y-53781819D02*
X82268571Y-52781819D01*
X82268571Y-52781819D02*
X82173333Y-52924676D01*
X82173333Y-52924676D02*
X82078095Y-53019914D01*
X82078095Y-53019914D02*
X81982857Y-53067533D01*
X80552905Y-51114819D02*
X80552905Y-50114819D01*
X80552905Y-50114819D02*
X80791000Y-50114819D01*
X80791000Y-50114819D02*
X80933857Y-50162438D01*
X80933857Y-50162438D02*
X81029095Y-50257676D01*
X81029095Y-50257676D02*
X81076714Y-50352914D01*
X81076714Y-50352914D02*
X81124333Y-50543390D01*
X81124333Y-50543390D02*
X81124333Y-50686247D01*
X81124333Y-50686247D02*
X81076714Y-50876723D01*
X81076714Y-50876723D02*
X81029095Y-50971961D01*
X81029095Y-50971961D02*
X80933857Y-51067200D01*
X80933857Y-51067200D02*
X80791000Y-51114819D01*
X80791000Y-51114819D02*
X80552905Y-51114819D01*
X82076714Y-51114819D02*
X81505286Y-51114819D01*
X81791000Y-51114819D02*
X81791000Y-50114819D01*
X81791000Y-50114819D02*
X81695762Y-50257676D01*
X81695762Y-50257676D02*
X81600524Y-50352914D01*
X81600524Y-50352914D02*
X81505286Y-50400533D01*
X71267333Y-53686580D02*
X71219714Y-53734200D01*
X71219714Y-53734200D02*
X71076857Y-53781819D01*
X71076857Y-53781819D02*
X70981619Y-53781819D01*
X70981619Y-53781819D02*
X70838762Y-53734200D01*
X70838762Y-53734200D02*
X70743524Y-53638961D01*
X70743524Y-53638961D02*
X70695905Y-53543723D01*
X70695905Y-53543723D02*
X70648286Y-53353247D01*
X70648286Y-53353247D02*
X70648286Y-53210390D01*
X70648286Y-53210390D02*
X70695905Y-53019914D01*
X70695905Y-53019914D02*
X70743524Y-52924676D01*
X70743524Y-52924676D02*
X70838762Y-52829438D01*
X70838762Y-52829438D02*
X70981619Y-52781819D01*
X70981619Y-52781819D02*
X71076857Y-52781819D01*
X71076857Y-52781819D02*
X71219714Y-52829438D01*
X71219714Y-52829438D02*
X71267333Y-52877057D01*
X72172095Y-52781819D02*
X71695905Y-52781819D01*
X71695905Y-52781819D02*
X71648286Y-53258009D01*
X71648286Y-53258009D02*
X71695905Y-53210390D01*
X71695905Y-53210390D02*
X71791143Y-53162771D01*
X71791143Y-53162771D02*
X72029238Y-53162771D01*
X72029238Y-53162771D02*
X72124476Y-53210390D01*
X72124476Y-53210390D02*
X72172095Y-53258009D01*
X72172095Y-53258009D02*
X72219714Y-53353247D01*
X72219714Y-53353247D02*
X72219714Y-53591342D01*
X72219714Y-53591342D02*
X72172095Y-53686580D01*
X72172095Y-53686580D02*
X72124476Y-53734200D01*
X72124476Y-53734200D02*
X72029238Y-53781819D01*
X72029238Y-53781819D02*
X71791143Y-53781819D01*
X71791143Y-53781819D02*
X71695905Y-53734200D01*
X71695905Y-53734200D02*
X71648286Y-53686580D01*
X60558819Y-50135333D02*
X61273104Y-50135333D01*
X61273104Y-50135333D02*
X61415961Y-50182952D01*
X61415961Y-50182952D02*
X61511200Y-50278190D01*
X61511200Y-50278190D02*
X61558819Y-50421047D01*
X61558819Y-50421047D02*
X61558819Y-50516285D01*
X60558819Y-49754380D02*
X60558819Y-49135333D01*
X60558819Y-49135333D02*
X60939771Y-49468666D01*
X60939771Y-49468666D02*
X60939771Y-49325809D01*
X60939771Y-49325809D02*
X60987390Y-49230571D01*
X60987390Y-49230571D02*
X61035009Y-49182952D01*
X61035009Y-49182952D02*
X61130247Y-49135333D01*
X61130247Y-49135333D02*
X61368342Y-49135333D01*
X61368342Y-49135333D02*
X61463580Y-49182952D01*
X61463580Y-49182952D02*
X61511200Y-49230571D01*
X61511200Y-49230571D02*
X61558819Y-49325809D01*
X61558819Y-49325809D02*
X61558819Y-49611523D01*
X61558819Y-49611523D02*
X61511200Y-49706761D01*
X61511200Y-49706761D02*
X61463580Y-49754380D01*
X90189819Y-49243333D02*
X90904104Y-49243333D01*
X90904104Y-49243333D02*
X91046961Y-49290952D01*
X91046961Y-49290952D02*
X91142200Y-49386190D01*
X91142200Y-49386190D02*
X91189819Y-49529047D01*
X91189819Y-49529047D02*
X91189819Y-49624285D01*
X90523152Y-48338571D02*
X91189819Y-48338571D01*
X90142200Y-48576666D02*
X90856485Y-48814761D01*
X90856485Y-48814761D02*
X90856485Y-48195714D01*
X75859333Y-70281580D02*
X75811714Y-70329200D01*
X75811714Y-70329200D02*
X75668857Y-70376819D01*
X75668857Y-70376819D02*
X75573619Y-70376819D01*
X75573619Y-70376819D02*
X75430762Y-70329200D01*
X75430762Y-70329200D02*
X75335524Y-70233961D01*
X75335524Y-70233961D02*
X75287905Y-70138723D01*
X75287905Y-70138723D02*
X75240286Y-69948247D01*
X75240286Y-69948247D02*
X75240286Y-69805390D01*
X75240286Y-69805390D02*
X75287905Y-69614914D01*
X75287905Y-69614914D02*
X75335524Y-69519676D01*
X75335524Y-69519676D02*
X75430762Y-69424438D01*
X75430762Y-69424438D02*
X75573619Y-69376819D01*
X75573619Y-69376819D02*
X75668857Y-69376819D01*
X75668857Y-69376819D02*
X75811714Y-69424438D01*
X75811714Y-69424438D02*
X75859333Y-69472057D01*
X76192667Y-69376819D02*
X76859333Y-69376819D01*
X76859333Y-69376819D02*
X76430762Y-70376819D01*
X82745333Y-63423580D02*
X82697714Y-63471200D01*
X82697714Y-63471200D02*
X82554857Y-63518819D01*
X82554857Y-63518819D02*
X82459619Y-63518819D01*
X82459619Y-63518819D02*
X82316762Y-63471200D01*
X82316762Y-63471200D02*
X82221524Y-63375961D01*
X82221524Y-63375961D02*
X82173905Y-63280723D01*
X82173905Y-63280723D02*
X82126286Y-63090247D01*
X82126286Y-63090247D02*
X82126286Y-62947390D01*
X82126286Y-62947390D02*
X82173905Y-62756914D01*
X82173905Y-62756914D02*
X82221524Y-62661676D01*
X82221524Y-62661676D02*
X82316762Y-62566438D01*
X82316762Y-62566438D02*
X82459619Y-62518819D01*
X82459619Y-62518819D02*
X82554857Y-62518819D01*
X82554857Y-62518819D02*
X82697714Y-62566438D01*
X82697714Y-62566438D02*
X82745333Y-62614057D01*
X83602476Y-62852152D02*
X83602476Y-63518819D01*
X83364381Y-62471200D02*
X83126286Y-63185485D01*
X83126286Y-63185485D02*
X83745333Y-63185485D01*
X78709333Y-63387819D02*
X78376000Y-62911628D01*
X78137905Y-63387819D02*
X78137905Y-62387819D01*
X78137905Y-62387819D02*
X78518857Y-62387819D01*
X78518857Y-62387819D02*
X78614095Y-62435438D01*
X78614095Y-62435438D02*
X78661714Y-62483057D01*
X78661714Y-62483057D02*
X78709333Y-62578295D01*
X78709333Y-62578295D02*
X78709333Y-62721152D01*
X78709333Y-62721152D02*
X78661714Y-62816390D01*
X78661714Y-62816390D02*
X78614095Y-62864009D01*
X78614095Y-62864009D02*
X78518857Y-62911628D01*
X78518857Y-62911628D02*
X78137905Y-62911628D01*
X79090286Y-62483057D02*
X79137905Y-62435438D01*
X79137905Y-62435438D02*
X79233143Y-62387819D01*
X79233143Y-62387819D02*
X79471238Y-62387819D01*
X79471238Y-62387819D02*
X79566476Y-62435438D01*
X79566476Y-62435438D02*
X79614095Y-62483057D01*
X79614095Y-62483057D02*
X79661714Y-62578295D01*
X79661714Y-62578295D02*
X79661714Y-62673533D01*
X79661714Y-62673533D02*
X79614095Y-62816390D01*
X79614095Y-62816390D02*
X79042667Y-63387819D01*
X79042667Y-63387819D02*
X79661714Y-63387819D01*
%TO.C,C3*%
D12*
X76697836Y-63974000D02*
X76482164Y-63974000D01*
X76697836Y-64694000D02*
X76482164Y-64694000D01*
%TO.C,X1*%
X69656000Y-68888000D02*
X69656000Y-67978000D01*
X70261000Y-65368000D02*
X71111000Y-65368000D01*
X70566000Y-68888000D02*
X69656000Y-68888000D01*
X74176000Y-65368000D02*
X73266000Y-65368000D01*
X74176000Y-65368000D02*
X74176000Y-66278000D01*
X74176000Y-68888000D02*
X73266000Y-68888000D01*
X74176000Y-68888000D02*
X74176000Y-67978000D01*
X69656000Y-65428000D02*
X69376000Y-65428000D01*
X69656000Y-65148000D01*
X69656000Y-65428000D01*
G36*
X69656000Y-65428000D02*
G01*
X69376000Y-65428000D01*
X69656000Y-65148000D01*
X69656000Y-65428000D01*
G37*
%TO.C,F1*%
X76748936Y-47210000D02*
X77953064Y-47210000D01*
X76748936Y-49030000D02*
X77953064Y-49030000D01*
%TO.C,R3*%
X67586359Y-48870000D02*
X67893641Y-48870000D01*
X67586359Y-49630000D02*
X67893641Y-49630000D01*
%TO.C,C6*%
X67912164Y-66768000D02*
X68127836Y-66768000D01*
X67912164Y-67488000D02*
X68127836Y-67488000D01*
%TO.C,C8*%
X84836164Y-66768000D02*
X85051836Y-66768000D01*
X84836164Y-67488000D02*
X85051836Y-67488000D01*
%TO.C,FB1*%
X78311252Y-52465000D02*
X77788748Y-52465000D01*
X78311252Y-53935000D02*
X77788748Y-53935000D01*
%TO.C,R4*%
X67586359Y-50140000D02*
X67893641Y-50140000D01*
X67586359Y-50900000D02*
X67893641Y-50900000D01*
%TO.C,D1*%
X79841000Y-49650000D02*
X76081000Y-49650000D01*
X79841000Y-51670000D02*
X76081000Y-51670000D01*
X79841000Y-51670000D02*
X79841000Y-49650000D01*
%TO.C,C5*%
X74555252Y-52592000D02*
X74032748Y-52592000D01*
X74555252Y-54062000D02*
X74032748Y-54062000D01*
%TO.C,J3*%
X62634000Y-45222000D02*
X60834000Y-45222000D01*
X62634000Y-54382000D02*
X60834000Y-54382000D01*
%TO.C,U1*%
X78650432Y-66243000D02*
X80466000Y-66243000D01*
X80466000Y-68513000D02*
X78246000Y-68513000D01*
X78356000Y-66238000D02*
X78216000Y-66048000D01*
X78496000Y-66048000D01*
X78356000Y-66238000D01*
G36*
X78356000Y-66238000D02*
G01*
X78216000Y-66048000D01*
X78496000Y-66048000D01*
X78356000Y-66238000D01*
G37*
%TO.C,J2*%
X90890000Y-66878000D02*
X90890000Y-67378000D01*
X90890000Y-67378000D02*
X91390000Y-67128000D01*
X91390000Y-67128000D02*
X90890000Y-66878000D01*
%TO.C,J4*%
X92925000Y-45925000D02*
X92925000Y-47725000D01*
X92925000Y-50095000D02*
X91935000Y-50095000D01*
X92925000Y-51895000D02*
X92925000Y-50095000D01*
X94375000Y-45925000D02*
X92925000Y-45925000D01*
X94375000Y-51895000D02*
X92925000Y-51895000D01*
X97195000Y-50625000D02*
X97195000Y-47195000D01*
%TO.C,C7*%
X75918164Y-66768000D02*
X76133836Y-66768000D01*
X75918164Y-67488000D02*
X76133836Y-67488000D01*
%TO.C,C4*%
X82832164Y-64228000D02*
X83047836Y-64228000D01*
X82832164Y-64948000D02*
X83047836Y-64948000D01*
%TO.C,R2*%
X78115000Y-64684359D02*
X78115000Y-64991641D01*
X78875000Y-64684359D02*
X78875000Y-64991641D01*
%TD*%
M02*
