%TF.GenerationSoftware,KiCad,Pcbnew,10.0.1*%
%TF.CreationDate,2026-04-30T02:01:38+08:00*%
%TF.ProjectId,pre_filter,7072655f-6669-46c7-9465-722e6b696361,rev?*%
%TF.SameCoordinates,Original*%
%TF.FileFunction,Copper,L3,Inr*%
%TF.FilePolarity,Positive*%
%FSLAX46Y46*%
G04 Gerber Fmt 4.6, Leading zero omitted, Abs format (unit mm)*
G04 Created by KiCad (PCBNEW 10.0.1) date 2026-04-30 02:01:38*
%MOMM*%
%LPD*%
G01*
G04 APERTURE LIST*
%TA.AperFunction,ComponentPad*%
%ADD10C,3.100000*%
%TD*%
%TA.AperFunction,ComponentPad*%
%ADD11O,1.700000X1.000000*%
%TD*%
%TA.AperFunction,ViaPad*%
%ADD12C,0.500000*%
%TD*%
%TA.AperFunction,ViaPad*%
%ADD13C,0.600000*%
%TD*%
%TA.AperFunction,Conductor*%
%ADD14C,0.500000*%
%TD*%
G04 APERTURE END LIST*
D10*
%TO.N,GND*%
%TO.C,H4*%
X89000000Y-75500000D03*
%TD*%
D11*
%TO.N,GND*%
%TO.C,J3*%
X63634000Y-45482000D03*
X59834000Y-45482000D03*
X63634000Y-54122000D03*
X59834000Y-54122000D03*
%TD*%
D10*
%TO.N,GND*%
%TO.C,H2*%
X89000000Y-44500000D03*
%TD*%
%TO.N,GND*%
%TO.C,H1*%
X69000000Y-44500000D03*
%TD*%
%TO.N,GND*%
%TO.C,H3*%
X69000000Y-75500000D03*
%TD*%
D12*
%TO.N,Net-(C3-Pad1)*%
X77100000Y-61150000D03*
X77118000Y-54687000D03*
D13*
%TO.N,GND*%
X80694730Y-41300000D03*
X95998000Y-65200000D03*
X89164000Y-66108000D03*
X71468000Y-58200000D03*
X89726730Y-41300000D03*
X74452000Y-58200000D03*
X95985000Y-46435000D03*
X87080000Y-66100000D03*
X96048000Y-69050000D03*
X69335000Y-49250000D03*
X93200000Y-58200000D03*
X68180000Y-68398000D03*
X94016000Y-69050000D03*
X94600000Y-71378000D03*
X94668000Y-58200000D03*
X85982000Y-66112000D03*
X74530000Y-65858000D03*
X90000000Y-78850000D03*
X69335000Y-50520000D03*
X60936000Y-58200000D03*
X66132000Y-65850000D03*
X70110730Y-41300000D03*
X61368000Y-78850000D03*
X67164000Y-68398000D03*
X65900000Y-78850000D03*
X65468000Y-58200000D03*
X94600000Y-62878000D03*
X64110730Y-41300000D03*
X96184000Y-58200000D03*
X63968000Y-58200000D03*
X93966000Y-65200000D03*
X60516000Y-64808000D03*
X61500000Y-62878000D03*
X85468000Y-78850000D03*
X79468000Y-78850000D03*
X84100000Y-58200000D03*
X61532000Y-69600000D03*
X91450000Y-68650000D03*
X66936000Y-58200000D03*
X88600000Y-58200000D03*
X76562000Y-68398000D03*
X86984000Y-78850000D03*
X85050000Y-68650000D03*
X62548000Y-69600000D03*
X63700000Y-65300000D03*
X85226730Y-41300000D03*
X69196000Y-65858000D03*
X71900000Y-78850000D03*
X93066000Y-78850000D03*
X59500000Y-64808000D03*
X61500000Y-71378000D03*
X68594730Y-41300000D03*
X81084000Y-58200000D03*
X83900000Y-68650000D03*
X86202000Y-68648000D03*
X88148000Y-66108000D03*
X87270000Y-68656000D03*
X67126730Y-41300000D03*
X91226730Y-41300000D03*
X68180000Y-65858000D03*
X88500000Y-78850000D03*
X92950000Y-65200000D03*
X72936000Y-58200000D03*
X86694730Y-41300000D03*
X75292000Y-64334000D03*
X79070000Y-68950000D03*
X69196000Y-68398000D03*
X76562000Y-65858000D03*
X65626730Y-41300000D03*
X68452000Y-58200000D03*
X95985000Y-51385000D03*
X72350000Y-65900000D03*
X89302000Y-68656000D03*
X62884000Y-78850000D03*
X71990000Y-68398000D03*
X68884000Y-78850000D03*
X92285000Y-47487000D03*
X77626730Y-41300000D03*
X61532000Y-64808000D03*
X80372000Y-65858000D03*
X67164000Y-65858000D03*
X95032000Y-69050000D03*
X93000000Y-69050000D03*
X62548000Y-64808000D03*
X76110730Y-41300000D03*
X79568000Y-58200000D03*
X74530000Y-68398000D03*
X74884000Y-78850000D03*
X63750000Y-69050000D03*
X90318000Y-68656000D03*
X73350000Y-54700000D03*
X74594730Y-41300000D03*
X84000000Y-78850000D03*
X91350000Y-66100000D03*
X90180000Y-66108000D03*
X80984000Y-78850000D03*
X73368000Y-78850000D03*
X82600000Y-58200000D03*
X82500000Y-78850000D03*
X62452000Y-58200000D03*
X71626730Y-41300000D03*
X87084000Y-58200000D03*
X78000000Y-78850000D03*
X73126730Y-41300000D03*
X65116000Y-65850000D03*
X88286000Y-68656000D03*
X78100000Y-58200000D03*
X77578000Y-65858000D03*
X69968000Y-58200000D03*
X83726730Y-41300000D03*
X84436000Y-64588000D03*
X70400000Y-78850000D03*
X94582000Y-78850000D03*
X91568000Y-58200000D03*
X80340000Y-68950000D03*
X76400000Y-78850000D03*
X81388000Y-65858000D03*
X75546000Y-68398000D03*
X79226730Y-41300000D03*
X91550000Y-78850000D03*
X90100000Y-58200000D03*
X85568000Y-58200000D03*
X66132000Y-68390000D03*
X75968000Y-58200000D03*
X65116000Y-68390000D03*
X60516000Y-69600000D03*
X81388000Y-68652000D03*
X62594730Y-41300000D03*
X59500000Y-69600000D03*
X94982000Y-65200000D03*
X74550000Y-50650000D03*
X67368000Y-78850000D03*
X71990000Y-67128000D03*
X82210730Y-41300000D03*
X88210730Y-41300000D03*
X75546000Y-65858000D03*
X77800000Y-68950000D03*
X64400000Y-78850000D03*
X84966000Y-66112000D03*
X79356000Y-67378000D03*
X79356000Y-65858000D03*
X83950000Y-66112000D03*
X82658000Y-68652000D03*
X59468000Y-58200000D03*
D12*
%TO.N,Net-(J4-Pin_1)*%
X91185000Y-49535000D03*
X65512000Y-48282000D03*
X65512000Y-51382000D03*
X74318000Y-48187000D03*
%TD*%
%TO.N,Net-(C3-Pad1)*%
D14*
X77118000Y-54687000D02*
X77100000Y-54705000D01*
X77100000Y-54705000D02*
X77100000Y-61150000D01*
%TD*%
%TA.AperFunction,Conductor*%
%TO.N,GND*%
G36*
X94516316Y-40687540D02*
G01*
X94519667Y-40687627D01*
X94522828Y-40687752D01*
X94821842Y-40703422D01*
X94828274Y-40703928D01*
X94834733Y-40704608D01*
X94841136Y-40705451D01*
X95132005Y-40751521D01*
X95132011Y-40751522D01*
X95138369Y-40752699D01*
X95144716Y-40754048D01*
X95151023Y-40755562D01*
X95221302Y-40774393D01*
X95435498Y-40831786D01*
X95441707Y-40833626D01*
X95447904Y-40835640D01*
X95453991Y-40837796D01*
X95728920Y-40943332D01*
X95734888Y-40945803D01*
X95740821Y-40948445D01*
X95746675Y-40951237D01*
X96009091Y-41084945D01*
X96014778Y-41088033D01*
X96020399Y-41091278D01*
X96025901Y-41094650D01*
X96272886Y-41255043D01*
X96278232Y-41258717D01*
X96283471Y-41262523D01*
X96288613Y-41266468D01*
X96482849Y-41423757D01*
X96482848Y-41423757D01*
X96517482Y-41451802D01*
X96522400Y-41456001D01*
X96527267Y-41460383D01*
X96531950Y-41464829D01*
X96740169Y-41673048D01*
X96744617Y-41677735D01*
X96748986Y-41682586D01*
X96753188Y-41687506D01*
X96938516Y-41916367D01*
X96942470Y-41921521D01*
X96946279Y-41926764D01*
X96949954Y-41932111D01*
X97110335Y-42179076D01*
X97113728Y-42184612D01*
X97116964Y-42190217D01*
X97120061Y-42195921D01*
X97253762Y-42458323D01*
X97256560Y-42464191D01*
X97259189Y-42470097D01*
X97261670Y-42476086D01*
X97367195Y-42750988D01*
X97369360Y-42757101D01*
X97371370Y-42763286D01*
X97373216Y-42769517D01*
X97449431Y-43053955D01*
X97450950Y-43060284D01*
X97452301Y-43066644D01*
X97453480Y-43073011D01*
X97499541Y-43363823D01*
X97500389Y-43370259D01*
X97501070Y-43376738D01*
X97501579Y-43383211D01*
X97517245Y-43682150D01*
X97517371Y-43685355D01*
X97517457Y-43688607D01*
X97517500Y-43691850D01*
X97517500Y-76682148D01*
X97517457Y-76685361D01*
X97517373Y-76688602D01*
X97517372Y-76688640D01*
X97517245Y-76691848D01*
X97501579Y-76990787D01*
X97501070Y-76997260D01*
X97500389Y-77003739D01*
X97499541Y-77010175D01*
X97453480Y-77300987D01*
X97452301Y-77307354D01*
X97450950Y-77313714D01*
X97449431Y-77320043D01*
X97373216Y-77604481D01*
X97371370Y-77610712D01*
X97369360Y-77616897D01*
X97367195Y-77623010D01*
X97261670Y-77897912D01*
X97259189Y-77903901D01*
X97256560Y-77909807D01*
X97253762Y-77915675D01*
X97120065Y-78178070D01*
X97116961Y-78183785D01*
X97113715Y-78189406D01*
X97110329Y-78194931D01*
X96949959Y-78441880D01*
X96946284Y-78447227D01*
X96942467Y-78452481D01*
X96938513Y-78457635D01*
X96753188Y-78686492D01*
X96748969Y-78691432D01*
X96744635Y-78696245D01*
X96740169Y-78700950D01*
X96531950Y-78909169D01*
X96527245Y-78913635D01*
X96522432Y-78917969D01*
X96517492Y-78922188D01*
X96288635Y-79107513D01*
X96283481Y-79111467D01*
X96278227Y-79115284D01*
X96272880Y-79118959D01*
X96025931Y-79279329D01*
X96020406Y-79282715D01*
X96014785Y-79285961D01*
X96009070Y-79289065D01*
X95746675Y-79422762D01*
X95740807Y-79425560D01*
X95734901Y-79428189D01*
X95728912Y-79430670D01*
X95454010Y-79536195D01*
X95447897Y-79538360D01*
X95441712Y-79540370D01*
X95435481Y-79542216D01*
X95151043Y-79618431D01*
X95144714Y-79619950D01*
X95138354Y-79621301D01*
X95131987Y-79622480D01*
X94841175Y-79668541D01*
X94834739Y-79669389D01*
X94828260Y-79670070D01*
X94821787Y-79670579D01*
X94522849Y-79686245D01*
X94519641Y-79686371D01*
X94516362Y-79686457D01*
X94513149Y-79686500D01*
X61522851Y-79686500D01*
X61519636Y-79686457D01*
X61516358Y-79686371D01*
X61513150Y-79686245D01*
X61214211Y-79670579D01*
X61207738Y-79670070D01*
X61201259Y-79669389D01*
X61194823Y-79668541D01*
X60904011Y-79622480D01*
X60897644Y-79621301D01*
X60891284Y-79619950D01*
X60884955Y-79618431D01*
X60600517Y-79542216D01*
X60594286Y-79540370D01*
X60588101Y-79538360D01*
X60582004Y-79536200D01*
X60307086Y-79430670D01*
X60301097Y-79428189D01*
X60295191Y-79425560D01*
X60289323Y-79422762D01*
X60161585Y-79357676D01*
X60161584Y-79357675D01*
X60026908Y-79289053D01*
X60021204Y-79285956D01*
X60015613Y-79282728D01*
X60010078Y-79279336D01*
X59763111Y-79118954D01*
X59757764Y-79115279D01*
X59752521Y-79111470D01*
X59747367Y-79107516D01*
X59518506Y-78922188D01*
X59513586Y-78917986D01*
X59508735Y-78913617D01*
X59504048Y-78909169D01*
X59295829Y-78700950D01*
X59291381Y-78696265D01*
X59287010Y-78691409D01*
X59282810Y-78686491D01*
X59241713Y-78635740D01*
X59241713Y-78635741D01*
X59097468Y-78457613D01*
X59093523Y-78452471D01*
X59089717Y-78447232D01*
X59086043Y-78441886D01*
X59086039Y-78441880D01*
X58925650Y-78194901D01*
X58922278Y-78189399D01*
X58919033Y-78183778D01*
X58915945Y-78178091D01*
X58782237Y-77915675D01*
X58779445Y-77909821D01*
X58779439Y-77909807D01*
X58776803Y-77903888D01*
X58774337Y-77897934D01*
X58668789Y-77622973D01*
X58666638Y-77616897D01*
X58664628Y-77610712D01*
X58662790Y-77604510D01*
X58586561Y-77320020D01*
X58585049Y-77313718D01*
X58585048Y-77313714D01*
X58583697Y-77307354D01*
X58582518Y-77300987D01*
X58572904Y-77240285D01*
X58536453Y-77010146D01*
X58535607Y-77003725D01*
X58534928Y-76997274D01*
X58534422Y-76990843D01*
X58518753Y-76691839D01*
X58518629Y-76688678D01*
X58518541Y-76685324D01*
X58518500Y-76682148D01*
X58518500Y-54632525D01*
X76549500Y-54632525D01*
X76549500Y-54642276D01*
X76549500Y-61222474D01*
X76587013Y-61362477D01*
X76587017Y-61362488D01*
X76587018Y-61362489D01*
X76657631Y-61484795D01*
X76659489Y-61488013D01*
X76761985Y-61590509D01*
X76762674Y-61591005D01*
X76765178Y-61592353D01*
X76884069Y-61660995D01*
X76887087Y-61662869D01*
X76887514Y-61662983D01*
X76887515Y-61662984D01*
X77027525Y-61700500D01*
X77027528Y-61700500D01*
X77172472Y-61700500D01*
X77172475Y-61700500D01*
X77312485Y-61662984D01*
X77438015Y-61590509D01*
X77540509Y-61488015D01*
X77612984Y-61362485D01*
X77650500Y-61222475D01*
X77650500Y-61077525D01*
X77650500Y-54851100D01*
X77651560Y-54834920D01*
X77653665Y-54818931D01*
X77656828Y-54803033D01*
X77668499Y-54759476D01*
X77668500Y-54759473D01*
X77668500Y-54614528D01*
X77668500Y-54614526D01*
X77630984Y-54474515D01*
X77558510Y-54348985D01*
X77456015Y-54246490D01*
X77330485Y-54174016D01*
X77330480Y-54174014D01*
X77273419Y-54158724D01*
X77273419Y-54158725D01*
X77257650Y-54154499D01*
X77208474Y-54141322D01*
X77208471Y-54141321D01*
X77203645Y-54140028D01*
X77190475Y-54136500D01*
X77190473Y-54136500D01*
X77045523Y-54136500D01*
X76937698Y-54165390D01*
X76937695Y-54165392D01*
X76921288Y-54169789D01*
X76904668Y-54171977D01*
X76891374Y-54182179D01*
X76779991Y-54246485D01*
X76779982Y-54246491D01*
X76779977Y-54246495D01*
X76659498Y-54366974D01*
X76659492Y-54366981D01*
X76659489Y-54366984D01*
X76659488Y-54366986D01*
X76600466Y-54469214D01*
X76600464Y-54469218D01*
X76597409Y-54474511D01*
X76597408Y-54474515D01*
X76587016Y-54492515D01*
X76549500Y-54632525D01*
X58518500Y-54632525D01*
X58518500Y-48006000D01*
X64806500Y-48006000D01*
X64806500Y-49224327D01*
X64806500Y-50494327D01*
X64806500Y-52158000D01*
X64806501Y-52158009D01*
X64813481Y-52222935D01*
X64813483Y-52222947D01*
X64824688Y-52274453D01*
X64835644Y-52312654D01*
X64835646Y-52312658D01*
X64892323Y-52409568D01*
X64892325Y-52409571D01*
X64938081Y-52462376D01*
X64938091Y-52462387D01*
X64982807Y-52504548D01*
X64982809Y-52504549D01*
X64982813Y-52504553D01*
X65082889Y-52555439D01*
X65149928Y-52575124D01*
X65236000Y-52587500D01*
X91587990Y-52587500D01*
X91588000Y-52587500D01*
X91652941Y-52580518D01*
X91704452Y-52569312D01*
X91742658Y-52558354D01*
X91839571Y-52501675D01*
X91892375Y-52455920D01*
X91892382Y-52455912D01*
X91892387Y-52455908D01*
X91934548Y-52411192D01*
X91934553Y-52411187D01*
X91985439Y-52311111D01*
X92005124Y-52244072D01*
X92017500Y-52158000D01*
X92017500Y-48006000D01*
X92010518Y-47941059D01*
X91999312Y-47889548D01*
X91988354Y-47851342D01*
X91931675Y-47754429D01*
X91885920Y-47701625D01*
X91885918Y-47701623D01*
X91885908Y-47701612D01*
X91841192Y-47659451D01*
X91841189Y-47659449D01*
X91841187Y-47659447D01*
X91741111Y-47608561D01*
X91741110Y-47608560D01*
X91741109Y-47608560D01*
X91674078Y-47588877D01*
X91674072Y-47588876D01*
X91588000Y-47576500D01*
X91587997Y-47576500D01*
X65236010Y-47576500D01*
X65236000Y-47576500D01*
X65235991Y-47576500D01*
X65235990Y-47576501D01*
X65171064Y-47583481D01*
X65171052Y-47583483D01*
X65119546Y-47594688D01*
X65081345Y-47605644D01*
X65081341Y-47605646D01*
X64984431Y-47662323D01*
X64984428Y-47662325D01*
X64931623Y-47708081D01*
X64931612Y-47708091D01*
X64889451Y-47752807D01*
X64889445Y-47752816D01*
X64838560Y-47852890D01*
X64818877Y-47919921D01*
X64818876Y-47919928D01*
X64806500Y-48006000D01*
X58518500Y-48006000D01*
X58518500Y-43691850D01*
X58518541Y-43688675D01*
X58518629Y-43685317D01*
X58518754Y-43682149D01*
X58521953Y-43621107D01*
X58534420Y-43383193D01*
X58534930Y-43376710D01*
X58535607Y-43370274D01*
X58536454Y-43363848D01*
X58536458Y-43363823D01*
X58582526Y-43072964D01*
X58583703Y-43066614D01*
X58585048Y-43060285D01*
X58586564Y-43053967D01*
X58662794Y-42769474D01*
X58664628Y-42763286D01*
X58666643Y-42757084D01*
X58668798Y-42751005D01*
X58774334Y-42476073D01*
X58776809Y-42470097D01*
X58779443Y-42464179D01*
X58782226Y-42458342D01*
X58915961Y-42195873D01*
X58919034Y-42190217D01*
X58922283Y-42184589D01*
X58925639Y-42179113D01*
X59086064Y-41932079D01*
X59089718Y-41926764D01*
X59093535Y-41921509D01*
X59097448Y-41916410D01*
X59282836Y-41687474D01*
X59287020Y-41682576D01*
X59291371Y-41677745D01*
X59295800Y-41673077D01*
X59504077Y-41464800D01*
X59508756Y-41460361D01*
X59513576Y-41456020D01*
X59518474Y-41451836D01*
X59747410Y-41266448D01*
X59752509Y-41262535D01*
X59757773Y-41258710D01*
X59763079Y-41255064D01*
X60010113Y-41094639D01*
X60015589Y-41091283D01*
X60021228Y-41088027D01*
X60026873Y-41084961D01*
X60289342Y-40951226D01*
X60295179Y-40948443D01*
X60301099Y-40945808D01*
X60307055Y-40943340D01*
X60582044Y-40837782D01*
X60588101Y-40835638D01*
X60594302Y-40833622D01*
X60600498Y-40831788D01*
X60600517Y-40831783D01*
X60884980Y-40755560D01*
X60891285Y-40754048D01*
X60893773Y-40753519D01*
X60897623Y-40752701D01*
X60903964Y-40751526D01*
X61194861Y-40705452D01*
X61201261Y-40704608D01*
X61207722Y-40703928D01*
X61214178Y-40703421D01*
X61513173Y-40687751D01*
X61516328Y-40687628D01*
X61519685Y-40687540D01*
X61522860Y-40687500D01*
X94513138Y-40687500D01*
X94516316Y-40687540D01*
G37*
%TD.AperFunction*%
%TD*%
%TA.AperFunction,Conductor*%
%TO.N,Net-(J4-Pin_1)*%
G36*
X91655039Y-47901685D02*
G01*
X91700794Y-47954489D01*
X91712000Y-48006000D01*
X91712000Y-52158000D01*
X91692315Y-52225039D01*
X91639511Y-52270794D01*
X91588000Y-52282000D01*
X65236000Y-52282000D01*
X65168961Y-52262315D01*
X65123206Y-52209511D01*
X65112000Y-52158000D01*
X65112000Y-50454108D01*
X68834500Y-50454108D01*
X68834500Y-50585891D01*
X68868608Y-50713187D01*
X68870170Y-50715892D01*
X68934500Y-50827314D01*
X69027686Y-50920500D01*
X69141814Y-50986392D01*
X69269108Y-51020500D01*
X69269110Y-51020500D01*
X69400890Y-51020500D01*
X69400892Y-51020500D01*
X69528186Y-50986392D01*
X69642314Y-50920500D01*
X69735500Y-50827314D01*
X69801392Y-50713186D01*
X69835500Y-50585892D01*
X69835500Y-50584108D01*
X74049500Y-50584108D01*
X74049500Y-50715891D01*
X74083608Y-50843187D01*
X74116554Y-50900250D01*
X74149500Y-50957314D01*
X74242686Y-51050500D01*
X74356814Y-51116392D01*
X74484108Y-51150500D01*
X74484110Y-51150500D01*
X74615890Y-51150500D01*
X74615892Y-51150500D01*
X74743186Y-51116392D01*
X74857314Y-51050500D01*
X74950500Y-50957314D01*
X75016392Y-50843186D01*
X75050500Y-50715892D01*
X75050500Y-50584108D01*
X75016392Y-50456814D01*
X74950500Y-50342686D01*
X74857314Y-50249500D01*
X74800250Y-50216554D01*
X74743187Y-50183608D01*
X74679539Y-50166554D01*
X74615892Y-50149500D01*
X74484108Y-50149500D01*
X74356812Y-50183608D01*
X74242686Y-50249500D01*
X74242683Y-50249502D01*
X74149502Y-50342683D01*
X74149500Y-50342686D01*
X74083608Y-50456812D01*
X74049500Y-50584108D01*
X69835500Y-50584108D01*
X69835500Y-50454108D01*
X69801392Y-50326814D01*
X69735500Y-50212686D01*
X69642314Y-50119500D01*
X69585250Y-50086554D01*
X69528187Y-50053608D01*
X69464539Y-50036554D01*
X69400892Y-50019500D01*
X69269108Y-50019500D01*
X69141812Y-50053608D01*
X69027686Y-50119500D01*
X69027683Y-50119502D01*
X68934502Y-50212683D01*
X68934500Y-50212686D01*
X68868608Y-50326812D01*
X68834500Y-50454108D01*
X65112000Y-50454108D01*
X65112000Y-49184108D01*
X68834500Y-49184108D01*
X68834500Y-49315891D01*
X68868608Y-49443187D01*
X68901554Y-49500250D01*
X68934500Y-49557314D01*
X69027686Y-49650500D01*
X69141814Y-49716392D01*
X69269108Y-49750500D01*
X69269110Y-49750500D01*
X69400890Y-49750500D01*
X69400892Y-49750500D01*
X69528186Y-49716392D01*
X69642314Y-49650500D01*
X69735500Y-49557314D01*
X69801392Y-49443186D01*
X69835500Y-49315892D01*
X69835500Y-49184108D01*
X69801392Y-49056814D01*
X69735500Y-48942686D01*
X69642314Y-48849500D01*
X69585250Y-48816554D01*
X69528187Y-48783608D01*
X69464539Y-48766554D01*
X69400892Y-48749500D01*
X69269108Y-48749500D01*
X69141812Y-48783608D01*
X69027686Y-48849500D01*
X69027683Y-48849502D01*
X68934502Y-48942683D01*
X68934500Y-48942686D01*
X68868608Y-49056812D01*
X68834500Y-49184108D01*
X65112000Y-49184108D01*
X65112000Y-48006000D01*
X65131685Y-47938961D01*
X65184489Y-47893206D01*
X65236000Y-47882000D01*
X91588000Y-47882000D01*
X91655039Y-47901685D01*
G37*
%TD.AperFunction*%
%TD*%
M02*
