%TF.GenerationSoftware,KiCad,Pcbnew,10.0.0*%
%TF.CreationDate,2026-03-22T15:05:52+08:00*%
%TF.ProjectId,pre_filter,7072655f-6669-46c7-9465-722e6b696361,rev?*%
%TF.SameCoordinates,Original*%
%TF.FileFunction,Paste,Top*%
%TF.FilePolarity,Positive*%
%FSLAX46Y46*%
G04 Gerber Fmt 4.6, Leading zero omitted, Abs format (unit mm)*
G04 Created by KiCad (PCBNEW 10.0.0) date 2026-03-22 15:05:52*
%MOMM*%
%LPD*%
G01*
G04 APERTURE LIST*
G04 Aperture macros list*
%AMRoundRect*
0 Rectangle with rounded corners*
0 $1 Rounding radius*
0 $2 $3 $4 $5 $6 $7 $8 $9 X,Y pos of 4 corners*
0 Add a 4 corners polygon primitive as box body*
4,1,4,$2,$3,$4,$5,$6,$7,$8,$9,$2,$3,0*
0 Add four circle primitives for the rounded corners*
1,1,$1+$1,$2,$3*
1,1,$1+$1,$4,$5*
1,1,$1+$1,$6,$7*
1,1,$1+$1,$8,$9*
0 Add four rect primitives between the rounded corners*
20,1,$1+$1,$2,$3,$4,$5,0*
20,1,$1+$1,$4,$5,$6,$7,0*
20,1,$1+$1,$6,$7,$8,$9,0*
20,1,$1+$1,$8,$9,$2,$3,0*%
G04 Aperture macros list end*
%ADD10RoundRect,0.150000X0.700000X-0.150000X0.700000X0.150000X-0.700000X0.150000X-0.700000X-0.150000X0*%
%ADD11RoundRect,0.250000X1.100000X-0.250000X1.100000X0.250000X-1.100000X0.250000X-1.100000X-0.250000X0*%
%ADD12RoundRect,0.140000X0.140000X0.170000X-0.140000X0.170000X-0.140000X-0.170000X0.140000X-0.170000X0*%
%ADD13R,2.000000X0.600000*%
%ADD14R,1.100000X0.600000*%
%ADD15RoundRect,0.147500X-0.172500X0.147500X-0.172500X-0.147500X0.172500X-0.147500X0.172500X0.147500X0*%
%ADD16RoundRect,0.250000X-0.375000X-0.625000X0.375000X-0.625000X0.375000X0.625000X-0.375000X0.625000X0*%
%ADD17RoundRect,0.135000X-0.135000X-0.185000X0.135000X-0.185000X0.135000X0.185000X-0.135000X0.185000X0*%
%ADD18RoundRect,0.140000X-0.140000X-0.170000X0.140000X-0.170000X0.140000X0.170000X-0.140000X0.170000X0*%
%ADD19RoundRect,0.250000X0.250000X0.475000X-0.250000X0.475000X-0.250000X-0.475000X0.250000X-0.475000X0*%
%ADD20RoundRect,0.250000X0.400000X0.450000X-0.400000X0.450000X-0.400000X-0.450000X0.400000X-0.450000X0*%
%ADD21RoundRect,0.175000X-0.625000X0.175000X-0.625000X-0.175000X0.625000X-0.175000X0.625000X0.175000X0*%
%ADD22RoundRect,0.200000X-0.600000X0.200000X-0.600000X-0.200000X0.600000X-0.200000X0.600000X0.200000X0*%
%ADD23RoundRect,0.225000X-0.575000X0.225000X-0.575000X-0.225000X0.575000X-0.225000X0.575000X0.225000X0*%
%ADD24R,5.080000X1.500000*%
%ADD25RoundRect,0.160000X-0.160000X-0.485000X0.160000X-0.485000X0.160000X0.485000X-0.160000X0.485000X0*%
%ADD26RoundRect,0.062500X-0.287500X-0.062500X0.287500X-0.062500X0.287500X0.062500X-0.287500X0.062500X0*%
%ADD27RoundRect,0.135000X-0.185000X0.135000X-0.185000X-0.135000X0.185000X-0.135000X0.185000X0.135000X0*%
G04 APERTURE END LIST*
D10*
%TO.C,J4*%
X81300000Y-40150000D03*
X81300000Y-38900000D03*
D11*
X84500000Y-42000000D03*
X84500000Y-37050000D03*
%TD*%
D12*
%TO.C,C3*%
X70104000Y-49276000D03*
X69144000Y-49276000D03*
%TD*%
D13*
%TO.C,X1*%
X63950000Y-50870000D03*
D14*
X63500000Y-52070000D03*
X63500000Y-53270000D03*
X66400000Y-53270000D03*
X66400000Y-52070000D03*
X66400000Y-50870000D03*
%TD*%
D15*
%TO.C,L1*%
X75438000Y-51100000D03*
X75438000Y-52070000D03*
%TD*%
D16*
%TO.C,F1*%
X68967000Y-38735000D03*
X71767000Y-38735000D03*
%TD*%
D17*
%TO.C,R3*%
X62730000Y-39370000D03*
X63750000Y-39370000D03*
%TD*%
D18*
%TO.C,C6*%
X60353000Y-52070000D03*
X61313000Y-52070000D03*
%TD*%
%TO.C,C8*%
X77498000Y-52070000D03*
X78458000Y-52070000D03*
%TD*%
D19*
%TO.C,FB1*%
X72016000Y-43815000D03*
X70116000Y-43815000D03*
%TD*%
D17*
%TO.C,R4*%
X62730000Y-40640000D03*
X63750000Y-40640000D03*
%TD*%
D20*
%TO.C,D1*%
X71947000Y-41275000D03*
X69047000Y-41275000D03*
%TD*%
D19*
%TO.C,C5*%
X68260000Y-43942000D03*
X66360000Y-43942000D03*
%TD*%
D21*
%TO.C,J3*%
X59314000Y-39422000D03*
D22*
X59314000Y-41442000D03*
D23*
X59314000Y-42672000D03*
D21*
X59314000Y-40422000D03*
D22*
X59314000Y-38402000D03*
D23*
X59314000Y-37172000D03*
%TD*%
D24*
%TO.C,J1*%
X55626000Y-52070000D03*
X55626000Y-56320000D03*
X55626000Y-47820000D03*
%TD*%
D25*
%TO.C,U1*%
X72390000Y-52320000D03*
D26*
X71390000Y-51570000D03*
X71390000Y-52070000D03*
X71390000Y-52570000D03*
X71390000Y-53070000D03*
X73390000Y-53070000D03*
X73390000Y-52570000D03*
X73390000Y-52070000D03*
X73390000Y-51570000D03*
%TD*%
D24*
%TO.C,J2*%
X83058000Y-52070000D03*
X83058000Y-47820000D03*
X83058000Y-56320000D03*
%TD*%
D18*
%TO.C,C7*%
X68580000Y-52070000D03*
X69540000Y-52070000D03*
%TD*%
%TO.C,C4*%
X75494000Y-49530000D03*
X76454000Y-49530000D03*
%TD*%
D27*
%TO.C,R2*%
X71529000Y-49270000D03*
X71529000Y-50290000D03*
%TD*%
M02*
