%TF.GenerationSoftware,KiCad,Pcbnew,10.0.0*%
%TF.CreationDate,2026-03-22T15:05:52+08:00*%
%TF.ProjectId,pre_filter,7072655f-6669-46c7-9465-722e6b696361,rev?*%
%TF.SameCoordinates,Original*%
%TF.FileFunction,Legend,Top*%
%TF.FilePolarity,Positive*%
%FSLAX46Y46*%
G04 Gerber Fmt 4.6, Leading zero omitted, Abs format (unit mm)*
G04 Created by KiCad (PCBNEW 10.0.0) date 2026-03-22 15:05:52*
%MOMM*%
%LPD*%
G01*
G04 APERTURE LIST*
G04 Aperture macros list*
%AMRoundRect*
0 Rectangle with rounded corners*
0 $1 Rounding radius*
0 $2 $3 $4 $5 $6 $7 $8 $9 X,Y pos of 4 corners*
0 Add a 4 corners polygon primitive as box body*
4,1,4,$2,$3,$4,$5,$6,$7,$8,$9,$2,$3,0*
0 Add four circle primitives for the rounded corners*
1,1,$1+$1,$2,$3*
1,1,$1+$1,$4,$5*
1,1,$1+$1,$6,$7*
1,1,$1+$1,$8,$9*
0 Add four rect primitives between the rounded corners*
20,1,$1+$1,$2,$3,$4,$5,0*
20,1,$1+$1,$4,$5,$6,$7,0*
20,1,$1+$1,$6,$7,$8,$9,0*
20,1,$1+$1,$8,$9,$2,$3,0*%
G04 Aperture macros list end*
%ADD10C,0.150000*%
%ADD11C,0.120000*%
%ADD12RoundRect,0.150000X0.700000X-0.150000X0.700000X0.150000X-0.700000X0.150000X-0.700000X-0.150000X0*%
%ADD13RoundRect,0.250000X1.100000X-0.250000X1.100000X0.250000X-1.100000X0.250000X-1.100000X-0.250000X0*%
%ADD14RoundRect,0.140000X0.140000X0.170000X-0.140000X0.170000X-0.140000X-0.170000X0.140000X-0.170000X0*%
%ADD15R,2.000000X0.600000*%
%ADD16R,1.100000X0.600000*%
%ADD17RoundRect,0.147500X-0.172500X0.147500X-0.172500X-0.147500X0.172500X-0.147500X0.172500X0.147500X0*%
%ADD18RoundRect,0.250000X-0.375000X-0.625000X0.375000X-0.625000X0.375000X0.625000X-0.375000X0.625000X0*%
%ADD19RoundRect,0.135000X-0.135000X-0.185000X0.135000X-0.185000X0.135000X0.185000X-0.135000X0.185000X0*%
%ADD20RoundRect,0.140000X-0.140000X-0.170000X0.140000X-0.170000X0.140000X0.170000X-0.140000X0.170000X0*%
%ADD21RoundRect,0.250000X0.250000X0.475000X-0.250000X0.475000X-0.250000X-0.475000X0.250000X-0.475000X0*%
%ADD22RoundRect,0.250000X0.400000X0.450000X-0.400000X0.450000X-0.400000X-0.450000X0.400000X-0.450000X0*%
%ADD23RoundRect,0.175000X-0.625000X0.175000X-0.625000X-0.175000X0.625000X-0.175000X0.625000X0.175000X0*%
%ADD24RoundRect,0.200000X-0.600000X0.200000X-0.600000X-0.200000X0.600000X-0.200000X0.600000X0.200000X0*%
%ADD25RoundRect,0.225000X-0.575000X0.225000X-0.575000X-0.225000X0.575000X-0.225000X0.575000X0.225000X0*%
%ADD26O,1.700000X1.000000*%
%ADD27R,5.080000X1.500000*%
%ADD28RoundRect,0.062500X-0.287500X-0.062500X0.287500X-0.062500X0.287500X0.062500X-0.287500X0.062500X0*%
%ADD29R,0.800000X1.600000*%
%ADD30RoundRect,0.135000X-0.185000X0.135000X-0.185000X-0.135000X0.185000X-0.135000X0.185000X0.135000X0*%
G04 APERTURE END LIST*
D10*
X78704819Y-39858333D02*
X79419104Y-39858333D01*
X79419104Y-39858333D02*
X79561961Y-39905952D01*
X79561961Y-39905952D02*
X79657200Y-40001190D01*
X79657200Y-40001190D02*
X79704819Y-40144047D01*
X79704819Y-40144047D02*
X79704819Y-40239285D01*
X79038152Y-38953571D02*
X79704819Y-38953571D01*
X78657200Y-39191666D02*
X79371485Y-39429761D01*
X79371485Y-39429761D02*
X79371485Y-38810714D01*
X68441333Y-48365580D02*
X68393714Y-48413200D01*
X68393714Y-48413200D02*
X68250857Y-48460819D01*
X68250857Y-48460819D02*
X68155619Y-48460819D01*
X68155619Y-48460819D02*
X68012762Y-48413200D01*
X68012762Y-48413200D02*
X67917524Y-48317961D01*
X67917524Y-48317961D02*
X67869905Y-48222723D01*
X67869905Y-48222723D02*
X67822286Y-48032247D01*
X67822286Y-48032247D02*
X67822286Y-47889390D01*
X67822286Y-47889390D02*
X67869905Y-47698914D01*
X67869905Y-47698914D02*
X67917524Y-47603676D01*
X67917524Y-47603676D02*
X68012762Y-47508438D01*
X68012762Y-47508438D02*
X68155619Y-47460819D01*
X68155619Y-47460819D02*
X68250857Y-47460819D01*
X68250857Y-47460819D02*
X68393714Y-47508438D01*
X68393714Y-47508438D02*
X68441333Y-47556057D01*
X68774667Y-47460819D02*
X69393714Y-47460819D01*
X69393714Y-47460819D02*
X69060381Y-47841771D01*
X69060381Y-47841771D02*
X69203238Y-47841771D01*
X69203238Y-47841771D02*
X69298476Y-47889390D01*
X69298476Y-47889390D02*
X69346095Y-47937009D01*
X69346095Y-47937009D02*
X69393714Y-48032247D01*
X69393714Y-48032247D02*
X69393714Y-48270342D01*
X69393714Y-48270342D02*
X69346095Y-48365580D01*
X69346095Y-48365580D02*
X69298476Y-48413200D01*
X69298476Y-48413200D02*
X69203238Y-48460819D01*
X69203238Y-48460819D02*
X68917524Y-48460819D01*
X68917524Y-48460819D02*
X68822286Y-48413200D01*
X68822286Y-48413200D02*
X68774667Y-48365580D01*
X75271333Y-55318819D02*
X74795143Y-55318819D01*
X74795143Y-55318819D02*
X74795143Y-54318819D01*
X76128476Y-55318819D02*
X75557048Y-55318819D01*
X75842762Y-55318819D02*
X75842762Y-54318819D01*
X75842762Y-54318819D02*
X75747524Y-54461676D01*
X75747524Y-54461676D02*
X75652286Y-54556914D01*
X75652286Y-54556914D02*
X75557048Y-54604533D01*
X73598666Y-38666009D02*
X73265333Y-38666009D01*
X73265333Y-39189819D02*
X73265333Y-38189819D01*
X73265333Y-38189819D02*
X73741523Y-38189819D01*
X74646285Y-39189819D02*
X74074857Y-39189819D01*
X74360571Y-39189819D02*
X74360571Y-38189819D01*
X74360571Y-38189819D02*
X74265333Y-38332676D01*
X74265333Y-38332676D02*
X74170095Y-38427914D01*
X74170095Y-38427914D02*
X74074857Y-38475533D01*
X60666333Y-50143580D02*
X60618714Y-50191200D01*
X60618714Y-50191200D02*
X60475857Y-50238819D01*
X60475857Y-50238819D02*
X60380619Y-50238819D01*
X60380619Y-50238819D02*
X60237762Y-50191200D01*
X60237762Y-50191200D02*
X60142524Y-50095961D01*
X60142524Y-50095961D02*
X60094905Y-50000723D01*
X60094905Y-50000723D02*
X60047286Y-49810247D01*
X60047286Y-49810247D02*
X60047286Y-49667390D01*
X60047286Y-49667390D02*
X60094905Y-49476914D01*
X60094905Y-49476914D02*
X60142524Y-49381676D01*
X60142524Y-49381676D02*
X60237762Y-49286438D01*
X60237762Y-49286438D02*
X60380619Y-49238819D01*
X60380619Y-49238819D02*
X60475857Y-49238819D01*
X60475857Y-49238819D02*
X60618714Y-49286438D01*
X60618714Y-49286438D02*
X60666333Y-49334057D01*
X61523476Y-49238819D02*
X61333000Y-49238819D01*
X61333000Y-49238819D02*
X61237762Y-49286438D01*
X61237762Y-49286438D02*
X61190143Y-49334057D01*
X61190143Y-49334057D02*
X61094905Y-49476914D01*
X61094905Y-49476914D02*
X61047286Y-49667390D01*
X61047286Y-49667390D02*
X61047286Y-50048342D01*
X61047286Y-50048342D02*
X61094905Y-50143580D01*
X61094905Y-50143580D02*
X61142524Y-50191200D01*
X61142524Y-50191200D02*
X61237762Y-50238819D01*
X61237762Y-50238819D02*
X61428238Y-50238819D01*
X61428238Y-50238819D02*
X61523476Y-50191200D01*
X61523476Y-50191200D02*
X61571095Y-50143580D01*
X61571095Y-50143580D02*
X61618714Y-50048342D01*
X61618714Y-50048342D02*
X61618714Y-49810247D01*
X61618714Y-49810247D02*
X61571095Y-49715009D01*
X61571095Y-49715009D02*
X61523476Y-49667390D01*
X61523476Y-49667390D02*
X61428238Y-49619771D01*
X61428238Y-49619771D02*
X61237762Y-49619771D01*
X61237762Y-49619771D02*
X61142524Y-49667390D01*
X61142524Y-49667390D02*
X61094905Y-49715009D01*
X61094905Y-49715009D02*
X61047286Y-49810247D01*
X77811333Y-55223580D02*
X77763714Y-55271200D01*
X77763714Y-55271200D02*
X77620857Y-55318819D01*
X77620857Y-55318819D02*
X77525619Y-55318819D01*
X77525619Y-55318819D02*
X77382762Y-55271200D01*
X77382762Y-55271200D02*
X77287524Y-55175961D01*
X77287524Y-55175961D02*
X77239905Y-55080723D01*
X77239905Y-55080723D02*
X77192286Y-54890247D01*
X77192286Y-54890247D02*
X77192286Y-54747390D01*
X77192286Y-54747390D02*
X77239905Y-54556914D01*
X77239905Y-54556914D02*
X77287524Y-54461676D01*
X77287524Y-54461676D02*
X77382762Y-54366438D01*
X77382762Y-54366438D02*
X77525619Y-54318819D01*
X77525619Y-54318819D02*
X77620857Y-54318819D01*
X77620857Y-54318819D02*
X77763714Y-54366438D01*
X77763714Y-54366438D02*
X77811333Y-54414057D01*
X78382762Y-54747390D02*
X78287524Y-54699771D01*
X78287524Y-54699771D02*
X78239905Y-54652152D01*
X78239905Y-54652152D02*
X78192286Y-54556914D01*
X78192286Y-54556914D02*
X78192286Y-54509295D01*
X78192286Y-54509295D02*
X78239905Y-54414057D01*
X78239905Y-54414057D02*
X78287524Y-54366438D01*
X78287524Y-54366438D02*
X78382762Y-54318819D01*
X78382762Y-54318819D02*
X78573238Y-54318819D01*
X78573238Y-54318819D02*
X78668476Y-54366438D01*
X78668476Y-54366438D02*
X78716095Y-54414057D01*
X78716095Y-54414057D02*
X78763714Y-54509295D01*
X78763714Y-54509295D02*
X78763714Y-54556914D01*
X78763714Y-54556914D02*
X78716095Y-54652152D01*
X78716095Y-54652152D02*
X78668476Y-54699771D01*
X78668476Y-54699771D02*
X78573238Y-54747390D01*
X78573238Y-54747390D02*
X78382762Y-54747390D01*
X78382762Y-54747390D02*
X78287524Y-54795009D01*
X78287524Y-54795009D02*
X78239905Y-54842628D01*
X78239905Y-54842628D02*
X78192286Y-54937866D01*
X78192286Y-54937866D02*
X78192286Y-55128342D01*
X78192286Y-55128342D02*
X78239905Y-55223580D01*
X78239905Y-55223580D02*
X78287524Y-55271200D01*
X78287524Y-55271200D02*
X78382762Y-55318819D01*
X78382762Y-55318819D02*
X78573238Y-55318819D01*
X78573238Y-55318819D02*
X78668476Y-55271200D01*
X78668476Y-55271200D02*
X78716095Y-55223580D01*
X78716095Y-55223580D02*
X78763714Y-55128342D01*
X78763714Y-55128342D02*
X78763714Y-54937866D01*
X78763714Y-54937866D02*
X78716095Y-54842628D01*
X78716095Y-54842628D02*
X78668476Y-54795009D01*
X78668476Y-54795009D02*
X78573238Y-54747390D01*
X73522666Y-43873009D02*
X73189333Y-43873009D01*
X73189333Y-44396819D02*
X73189333Y-43396819D01*
X73189333Y-43396819D02*
X73665523Y-43396819D01*
X74379809Y-43873009D02*
X74522666Y-43920628D01*
X74522666Y-43920628D02*
X74570285Y-43968247D01*
X74570285Y-43968247D02*
X74617904Y-44063485D01*
X74617904Y-44063485D02*
X74617904Y-44206342D01*
X74617904Y-44206342D02*
X74570285Y-44301580D01*
X74570285Y-44301580D02*
X74522666Y-44349200D01*
X74522666Y-44349200D02*
X74427428Y-44396819D01*
X74427428Y-44396819D02*
X74046476Y-44396819D01*
X74046476Y-44396819D02*
X74046476Y-43396819D01*
X74046476Y-43396819D02*
X74379809Y-43396819D01*
X74379809Y-43396819D02*
X74475047Y-43444438D01*
X74475047Y-43444438D02*
X74522666Y-43492057D01*
X74522666Y-43492057D02*
X74570285Y-43587295D01*
X74570285Y-43587295D02*
X74570285Y-43682533D01*
X74570285Y-43682533D02*
X74522666Y-43777771D01*
X74522666Y-43777771D02*
X74475047Y-43825390D01*
X74475047Y-43825390D02*
X74379809Y-43873009D01*
X74379809Y-43873009D02*
X74046476Y-43873009D01*
X75570285Y-44396819D02*
X74998857Y-44396819D01*
X75284571Y-44396819D02*
X75284571Y-43396819D01*
X75284571Y-43396819D02*
X75189333Y-43539676D01*
X75189333Y-43539676D02*
X75094095Y-43634914D01*
X75094095Y-43634914D02*
X74998857Y-43682533D01*
X73568905Y-41729819D02*
X73568905Y-40729819D01*
X73568905Y-40729819D02*
X73807000Y-40729819D01*
X73807000Y-40729819D02*
X73949857Y-40777438D01*
X73949857Y-40777438D02*
X74045095Y-40872676D01*
X74045095Y-40872676D02*
X74092714Y-40967914D01*
X74092714Y-40967914D02*
X74140333Y-41158390D01*
X74140333Y-41158390D02*
X74140333Y-41301247D01*
X74140333Y-41301247D02*
X74092714Y-41491723D01*
X74092714Y-41491723D02*
X74045095Y-41586961D01*
X74045095Y-41586961D02*
X73949857Y-41682200D01*
X73949857Y-41682200D02*
X73807000Y-41729819D01*
X73807000Y-41729819D02*
X73568905Y-41729819D01*
X75092714Y-41729819D02*
X74521286Y-41729819D01*
X74807000Y-41729819D02*
X74807000Y-40729819D01*
X74807000Y-40729819D02*
X74711762Y-40872676D01*
X74711762Y-40872676D02*
X74616524Y-40967914D01*
X74616524Y-40967914D02*
X74521286Y-41015533D01*
X64283333Y-44301580D02*
X64235714Y-44349200D01*
X64235714Y-44349200D02*
X64092857Y-44396819D01*
X64092857Y-44396819D02*
X63997619Y-44396819D01*
X63997619Y-44396819D02*
X63854762Y-44349200D01*
X63854762Y-44349200D02*
X63759524Y-44253961D01*
X63759524Y-44253961D02*
X63711905Y-44158723D01*
X63711905Y-44158723D02*
X63664286Y-43968247D01*
X63664286Y-43968247D02*
X63664286Y-43825390D01*
X63664286Y-43825390D02*
X63711905Y-43634914D01*
X63711905Y-43634914D02*
X63759524Y-43539676D01*
X63759524Y-43539676D02*
X63854762Y-43444438D01*
X63854762Y-43444438D02*
X63997619Y-43396819D01*
X63997619Y-43396819D02*
X64092857Y-43396819D01*
X64092857Y-43396819D02*
X64235714Y-43444438D01*
X64235714Y-43444438D02*
X64283333Y-43492057D01*
X65188095Y-43396819D02*
X64711905Y-43396819D01*
X64711905Y-43396819D02*
X64664286Y-43873009D01*
X64664286Y-43873009D02*
X64711905Y-43825390D01*
X64711905Y-43825390D02*
X64807143Y-43777771D01*
X64807143Y-43777771D02*
X65045238Y-43777771D01*
X65045238Y-43777771D02*
X65140476Y-43825390D01*
X65140476Y-43825390D02*
X65188095Y-43873009D01*
X65188095Y-43873009D02*
X65235714Y-43968247D01*
X65235714Y-43968247D02*
X65235714Y-44206342D01*
X65235714Y-44206342D02*
X65188095Y-44301580D01*
X65188095Y-44301580D02*
X65140476Y-44349200D01*
X65140476Y-44349200D02*
X65045238Y-44396819D01*
X65045238Y-44396819D02*
X64807143Y-44396819D01*
X64807143Y-44396819D02*
X64711905Y-44349200D01*
X64711905Y-44349200D02*
X64664286Y-44301580D01*
X56058819Y-40255333D02*
X56773104Y-40255333D01*
X56773104Y-40255333D02*
X56915961Y-40302952D01*
X56915961Y-40302952D02*
X57011200Y-40398190D01*
X57011200Y-40398190D02*
X57058819Y-40541047D01*
X57058819Y-40541047D02*
X57058819Y-40636285D01*
X56058819Y-39874380D02*
X56058819Y-39255333D01*
X56058819Y-39255333D02*
X56439771Y-39588666D01*
X56439771Y-39588666D02*
X56439771Y-39445809D01*
X56439771Y-39445809D02*
X56487390Y-39350571D01*
X56487390Y-39350571D02*
X56535009Y-39302952D01*
X56535009Y-39302952D02*
X56630247Y-39255333D01*
X56630247Y-39255333D02*
X56868342Y-39255333D01*
X56868342Y-39255333D02*
X56963580Y-39302952D01*
X56963580Y-39302952D02*
X57011200Y-39350571D01*
X57011200Y-39350571D02*
X57058819Y-39445809D01*
X57058819Y-39445809D02*
X57058819Y-39731523D01*
X57058819Y-39731523D02*
X57011200Y-39826761D01*
X57011200Y-39826761D02*
X56963580Y-39874380D01*
X68893333Y-55223580D02*
X68845714Y-55271200D01*
X68845714Y-55271200D02*
X68702857Y-55318819D01*
X68702857Y-55318819D02*
X68607619Y-55318819D01*
X68607619Y-55318819D02*
X68464762Y-55271200D01*
X68464762Y-55271200D02*
X68369524Y-55175961D01*
X68369524Y-55175961D02*
X68321905Y-55080723D01*
X68321905Y-55080723D02*
X68274286Y-54890247D01*
X68274286Y-54890247D02*
X68274286Y-54747390D01*
X68274286Y-54747390D02*
X68321905Y-54556914D01*
X68321905Y-54556914D02*
X68369524Y-54461676D01*
X68369524Y-54461676D02*
X68464762Y-54366438D01*
X68464762Y-54366438D02*
X68607619Y-54318819D01*
X68607619Y-54318819D02*
X68702857Y-54318819D01*
X68702857Y-54318819D02*
X68845714Y-54366438D01*
X68845714Y-54366438D02*
X68893333Y-54414057D01*
X69226667Y-54318819D02*
X69893333Y-54318819D01*
X69893333Y-54318819D02*
X69464762Y-55318819D01*
X75779333Y-48365580D02*
X75731714Y-48413200D01*
X75731714Y-48413200D02*
X75588857Y-48460819D01*
X75588857Y-48460819D02*
X75493619Y-48460819D01*
X75493619Y-48460819D02*
X75350762Y-48413200D01*
X75350762Y-48413200D02*
X75255524Y-48317961D01*
X75255524Y-48317961D02*
X75207905Y-48222723D01*
X75207905Y-48222723D02*
X75160286Y-48032247D01*
X75160286Y-48032247D02*
X75160286Y-47889390D01*
X75160286Y-47889390D02*
X75207905Y-47698914D01*
X75207905Y-47698914D02*
X75255524Y-47603676D01*
X75255524Y-47603676D02*
X75350762Y-47508438D01*
X75350762Y-47508438D02*
X75493619Y-47460819D01*
X75493619Y-47460819D02*
X75588857Y-47460819D01*
X75588857Y-47460819D02*
X75731714Y-47508438D01*
X75731714Y-47508438D02*
X75779333Y-47556057D01*
X76636476Y-47794152D02*
X76636476Y-48460819D01*
X76398381Y-47413200D02*
X76160286Y-48127485D01*
X76160286Y-48127485D02*
X76779333Y-48127485D01*
X71743333Y-48329819D02*
X71410000Y-47853628D01*
X71171905Y-48329819D02*
X71171905Y-47329819D01*
X71171905Y-47329819D02*
X71552857Y-47329819D01*
X71552857Y-47329819D02*
X71648095Y-47377438D01*
X71648095Y-47377438D02*
X71695714Y-47425057D01*
X71695714Y-47425057D02*
X71743333Y-47520295D01*
X71743333Y-47520295D02*
X71743333Y-47663152D01*
X71743333Y-47663152D02*
X71695714Y-47758390D01*
X71695714Y-47758390D02*
X71648095Y-47806009D01*
X71648095Y-47806009D02*
X71552857Y-47853628D01*
X71552857Y-47853628D02*
X71171905Y-47853628D01*
X72124286Y-47425057D02*
X72171905Y-47377438D01*
X72171905Y-47377438D02*
X72267143Y-47329819D01*
X72267143Y-47329819D02*
X72505238Y-47329819D01*
X72505238Y-47329819D02*
X72600476Y-47377438D01*
X72600476Y-47377438D02*
X72648095Y-47425057D01*
X72648095Y-47425057D02*
X72695714Y-47520295D01*
X72695714Y-47520295D02*
X72695714Y-47615533D01*
X72695714Y-47615533D02*
X72648095Y-47758390D01*
X72648095Y-47758390D02*
X72076667Y-48329819D01*
X72076667Y-48329819D02*
X72695714Y-48329819D01*
%TO.C,J4*%
D11*
X81440000Y-42510000D02*
X81440000Y-40710000D01*
X82890000Y-42510000D02*
X81440000Y-42510000D01*
X85710000Y-41240000D02*
X85710000Y-37810000D01*
X81440000Y-40710000D02*
X80450000Y-40710000D01*
X81440000Y-36540000D02*
X81440000Y-38340000D01*
X82890000Y-36540000D02*
X81440000Y-36540000D01*
%TO.C,C3*%
X69731836Y-48916000D02*
X69516164Y-48916000D01*
X69731836Y-49636000D02*
X69516164Y-49636000D01*
%TO.C,X1*%
X62690000Y-53830000D02*
X62690000Y-52920000D01*
X63295000Y-50310000D02*
X64145000Y-50310000D01*
X63600000Y-53830000D02*
X62690000Y-53830000D01*
X67210000Y-50310000D02*
X66300000Y-50310000D01*
X67210000Y-50310000D02*
X67210000Y-51220000D01*
X67210000Y-53830000D02*
X66300000Y-53830000D01*
X67210000Y-53830000D02*
X67210000Y-52920000D01*
X62690000Y-50370000D02*
X62410000Y-50370000D01*
X62690000Y-50090000D01*
X62690000Y-50370000D01*
G36*
X62690000Y-50370000D02*
G01*
X62410000Y-50370000D01*
X62690000Y-50090000D01*
X62690000Y-50370000D01*
G37*
%TO.C,F1*%
X69764936Y-37825000D02*
X70969064Y-37825000D01*
X69764936Y-39645000D02*
X70969064Y-39645000D01*
%TO.C,R3*%
X63086359Y-38990000D02*
X63393641Y-38990000D01*
X63086359Y-39750000D02*
X63393641Y-39750000D01*
%TO.C,C6*%
X60725164Y-51710000D02*
X60940836Y-51710000D01*
X60725164Y-52430000D02*
X60940836Y-52430000D01*
%TO.C,C8*%
X77870164Y-51710000D02*
X78085836Y-51710000D01*
X77870164Y-52430000D02*
X78085836Y-52430000D01*
%TO.C,FB1*%
X71327252Y-43080000D02*
X70804748Y-43080000D01*
X71327252Y-44550000D02*
X70804748Y-44550000D01*
%TO.C,R4*%
X63086359Y-40260000D02*
X63393641Y-40260000D01*
X63086359Y-41020000D02*
X63393641Y-41020000D01*
%TO.C,D1*%
X72857000Y-40265000D02*
X69097000Y-40265000D01*
X72857000Y-42285000D02*
X69097000Y-42285000D01*
X72857000Y-42285000D02*
X72857000Y-40265000D01*
%TO.C,C5*%
X67571252Y-43207000D02*
X67048748Y-43207000D01*
X67571252Y-44677000D02*
X67048748Y-44677000D01*
%TO.C,J3*%
X52624000Y-35342000D02*
X52624000Y-44502000D01*
X54134000Y-35342000D02*
X52624000Y-35342000D01*
X54134000Y-44502000D02*
X52624000Y-44502000D01*
X58034000Y-35342000D02*
X56034000Y-35342000D01*
X58034000Y-44502000D02*
X56034000Y-44502000D01*
%TO.C,J1*%
X58836000Y-52070000D02*
X59336000Y-52320000D01*
X59336000Y-51820000D02*
X58836000Y-52070000D01*
X59336000Y-52320000D02*
X59336000Y-51820000D01*
%TO.C,U1*%
X71684432Y-51185000D02*
X73500000Y-51185000D01*
X73500000Y-53455000D02*
X71280000Y-53455000D01*
X71390000Y-51180000D02*
X71250000Y-50990000D01*
X71530000Y-50990000D01*
X71390000Y-51180000D01*
G36*
X71390000Y-51180000D02*
G01*
X71250000Y-50990000D01*
X71530000Y-50990000D01*
X71390000Y-51180000D01*
G37*
%TO.C,J2*%
X79348000Y-51820000D02*
X79348000Y-52320000D01*
X79348000Y-52320000D02*
X79848000Y-52070000D01*
X79848000Y-52070000D02*
X79348000Y-51820000D01*
%TO.C,C7*%
X68952164Y-51710000D02*
X69167836Y-51710000D01*
X68952164Y-52430000D02*
X69167836Y-52430000D01*
%TO.C,C4*%
X75866164Y-49170000D02*
X76081836Y-49170000D01*
X75866164Y-49890000D02*
X76081836Y-49890000D01*
%TO.C,R2*%
X71149000Y-49626359D02*
X71149000Y-49933641D01*
X71909000Y-49626359D02*
X71909000Y-49933641D01*
%TD*%
%LPC*%
D12*
%TO.C,J4*%
X81300000Y-40150000D03*
X81300000Y-38900000D03*
D13*
X84500000Y-42000000D03*
X84500000Y-37050000D03*
%TD*%
D14*
%TO.C,C3*%
X70104000Y-49276000D03*
X69144000Y-49276000D03*
%TD*%
D15*
%TO.C,X1*%
X63950000Y-50870000D03*
D16*
X63500000Y-52070000D03*
X63500000Y-53270000D03*
X66400000Y-53270000D03*
X66400000Y-52070000D03*
X66400000Y-50870000D03*
%TD*%
D17*
%TO.C,L1*%
X75438000Y-51100000D03*
X75438000Y-52070000D03*
%TD*%
D18*
%TO.C,F1*%
X68967000Y-38735000D03*
X71767000Y-38735000D03*
%TD*%
D19*
%TO.C,R3*%
X62730000Y-39370000D03*
X63750000Y-39370000D03*
%TD*%
D20*
%TO.C,C6*%
X60353000Y-52070000D03*
X61313000Y-52070000D03*
%TD*%
%TO.C,C8*%
X77498000Y-52070000D03*
X78458000Y-52070000D03*
%TD*%
D21*
%TO.C,FB1*%
X72016000Y-43815000D03*
X70116000Y-43815000D03*
%TD*%
D19*
%TO.C,R4*%
X62730000Y-40640000D03*
X63750000Y-40640000D03*
%TD*%
D22*
%TO.C,D1*%
X71947000Y-41275000D03*
X69047000Y-41275000D03*
%TD*%
D21*
%TO.C,C5*%
X68260000Y-43942000D03*
X66360000Y-43942000D03*
%TD*%
D23*
%TO.C,J3*%
X59314000Y-39422000D03*
D24*
X59314000Y-41442000D03*
D25*
X59314000Y-42672000D03*
D23*
X59314000Y-40422000D03*
D24*
X59314000Y-38402000D03*
D25*
X59314000Y-37172000D03*
D26*
X59134000Y-35602000D03*
X55334000Y-35602000D03*
X59134000Y-44242000D03*
X55334000Y-44242000D03*
%TD*%
D27*
%TO.C,J1*%
X55626000Y-52070000D03*
X55626000Y-56320000D03*
X55626000Y-47820000D03*
%TD*%
D28*
%TO.C,U1*%
X71390000Y-51570000D03*
X71390000Y-52070000D03*
X71390000Y-52570000D03*
X71390000Y-53070000D03*
X73390000Y-53070000D03*
X73390000Y-52570000D03*
X73390000Y-52070000D03*
X73390000Y-51570000D03*
D29*
X72390000Y-52320000D03*
%TD*%
D27*
%TO.C,J2*%
X83058000Y-52070000D03*
X83058000Y-47820000D03*
X83058000Y-56320000D03*
%TD*%
D20*
%TO.C,C7*%
X68580000Y-52070000D03*
X69540000Y-52070000D03*
%TD*%
%TO.C,C4*%
X75494000Y-49530000D03*
X76454000Y-49530000D03*
%TD*%
D30*
%TO.C,R2*%
X71529000Y-49270000D03*
X71529000Y-50290000D03*
%TD*%
%LPD*%
M02*
