M48
; DRILL file KiCad 10.0.0 date 2026-03-22T15:05:52
; FORMAT={-:-/ absolute / inch / decimal}
; #@! TF.CreationDate,2026-03-22T15:05:52+08:00
; #@! TF.GenerationSoftware,Kicad,Pcbnew,10.0.0
; #@! TF.FileFunction,Plated,1,2,PTH
FMAT,2
INCH
; #@! TA.AperFunction,Plated,PTH,ViaDrill
T1C0.0118
; #@! TA.AperFunction,Plated,PTH,ComponentDrill
T2C0.0197
%
G90
G05
T1
X2.1339Y-1.9587
X2.1339Y-2.1457
X2.1339Y-2.3031
X2.1739Y-1.9587
X2.1739Y-2.1457
X2.1739Y-2.3031
X2.19Y-1.8827
X2.19Y-2.2173
X2.2139Y-1.9587
X2.2139Y-2.1457
X2.2139Y-2.3031
X2.2539Y-1.9587
X2.2539Y-2.1457
X2.2539Y-2.3031
X2.3013Y-2.3031
X2.33Y-2.0
X2.33Y-2.1
X2.3413Y-2.3031
X2.37Y-2.0
X2.37Y-2.1
X2.3813Y-2.3031
X2.41Y-2.0
X2.41Y-2.1
X2.4114Y-1.3681
X2.4213Y-2.3031
X2.45Y-2.0
X2.45Y-2.1
X2.4514Y-1.3681
X2.4686Y-2.3031
X2.4914Y-1.3681
X2.5086Y-2.3031
X2.5314Y-1.3681
X2.5415Y-1.55
X2.5415Y-1.6
X2.5486Y-2.3031
X2.56Y-2.05
X2.56Y-2.1
X2.5787Y-1.3681
X2.5886Y-2.3031
X2.61Y-1.78
X2.6187Y-1.3681
X2.6359Y-2.3031
X2.6587Y-1.3681
X2.66Y-1.65
X2.66Y-2.0
X2.66Y-2.1
X2.6759Y-2.3031
X2.69Y-1.94
X2.6987Y-1.3681
X2.7Y-2.0
X2.7Y-2.1
X2.7159Y-2.3031
X2.74Y-2.0
X2.74Y-2.1
X2.7461Y-1.3681
X2.7559Y-2.3031
X2.77Y-2.12
X2.78Y-2.0
X2.7861Y-1.3681
X2.8032Y-2.3031
X2.82Y-2.12
X2.8261Y-1.3681
X2.8432Y-2.3031
X2.85Y-2.0
X2.8661Y-1.3681
X2.87Y-2.12
X2.8832Y-2.3031
X2.89Y-2.0
X2.9134Y-1.3681
X2.9232Y-2.3031
X2.93Y-2.0
X2.93Y-2.11
X2.9534Y-1.3681
X2.9706Y-2.3031
X2.98Y-2.11
X2.9934Y-1.3681
X3.01Y-2.01
X3.0106Y-2.3031
X3.03Y-2.11
X3.0334Y-1.3681
X3.05Y-1.95
X3.05Y-2.01
X3.0506Y-2.3031
X3.08Y-2.11
X3.0807Y-1.3681
X3.09Y-2.01
X3.0906Y-2.3031
X3.1207Y-1.3681
X3.13Y-2.01
X3.13Y-2.11
X3.1379Y-2.3031
X3.1607Y-1.3681
X3.1779Y-2.3031
X3.2007Y-1.3681
X3.2068Y-1.9685
X3.2068Y-2.1457
X3.2087Y-1.7618
X3.2179Y-2.3031
X3.2468Y-1.9685
X3.2468Y-2.1457
X3.248Y-1.3681
X3.2487Y-1.7618
X3.2579Y-2.3031
X3.27Y-1.8827
X3.27Y-2.2173
X3.2868Y-1.9685
X3.2868Y-2.1457
X3.288Y-1.3681
X3.2887Y-1.7618
X3.3052Y-2.3031
X3.3268Y-1.4587
X3.3268Y-1.6535
X3.3268Y-1.9685
X3.3268Y-2.1457
X3.328Y-1.3681
X3.3287Y-1.7618
X3.3452Y-2.3031
T2
G00X2.1923Y-1.4017
M15
G01X2.1647Y-1.4017
M16
G05
G00X2.1923Y-1.7418
M15
G01X2.1647Y-1.7418
M16
G05
G00X2.3419Y-1.4017
M15
G01X2.3143Y-1.4017
M16
G05
G00X2.3419Y-1.7418
M15
G01X2.3143Y-1.7418
M16
G05
M30
