%TF.GenerationSoftware,KiCad,Pcbnew,10.0.0*%
%TF.CreationDate,2026-03-22T15:05:52+08:00*%
%TF.ProjectId,pre_filter,7072655f-6669-46c7-9465-722e6b696361,rev?*%
%TF.SameCoordinates,Original*%
%TF.FileFunction,Copper,L2,Bot*%
%TF.FilePolarity,Positive*%
%FSLAX46Y46*%
G04 Gerber Fmt 4.6, Leading zero omitted, Abs format (unit mm)*
G04 Created by KiCad (PCBNEW 10.0.0) date 2026-03-22 15:05:52*
%MOMM*%
%LPD*%
G01*
G04 APERTURE LIST*
%TA.AperFunction,ComponentPad*%
%ADD10O,1.700000X1.000000*%
%TD*%
%TA.AperFunction,SMDPad,CuDef*%
%ADD11R,5.080000X1.500000*%
%TD*%
%TA.AperFunction,ViaPad*%
%ADD12C,0.600000*%
%TD*%
G04 APERTURE END LIST*
D10*
%TO.P,J3,SH,SHIELD_SH*%
%TO.N,GND*%
X59134000Y-35602000D03*
X55334000Y-35602000D03*
X59134000Y-44242000D03*
X55334000Y-44242000D03*
%TD*%
D11*
%TO.P,J1,2,Ext_2*%
%TO.N,GND*%
X55626000Y-56320000D03*
X55626000Y-47820000D03*
%TD*%
%TO.P,J2,2,Ext_2*%
%TO.N,GND*%
X83058000Y-47820000D03*
X83058000Y-56320000D03*
%TD*%
D12*
%TO.N,GND*%
X83532000Y-44750000D03*
X81500000Y-44750000D03*
X82516000Y-44750000D03*
X84548000Y-44750000D03*
X84500000Y-42000000D03*
X84500000Y-37050000D03*
X72798000Y-34750000D03*
X69750000Y-34750000D03*
X67532000Y-34750000D03*
X62266000Y-34750000D03*
X84532000Y-34750000D03*
X64298000Y-34750000D03*
X78250000Y-34750000D03*
X65500000Y-34750000D03*
X75016000Y-34750000D03*
X82500000Y-34750000D03*
X61250000Y-34750000D03*
X74000000Y-34750000D03*
X83516000Y-34750000D03*
X66516000Y-34750000D03*
X81298000Y-34750000D03*
X63282000Y-34750000D03*
X70766000Y-34750000D03*
X80282000Y-34750000D03*
X68548000Y-34750000D03*
X76032000Y-34750000D03*
X71782000Y-34750000D03*
X77048000Y-34750000D03*
X79266000Y-34750000D03*
X80718000Y-58500000D03*
X82750000Y-58500000D03*
X83952000Y-58500000D03*
X79702000Y-58500000D03*
X84968000Y-58500000D03*
X81734000Y-58500000D03*
X77484000Y-58500000D03*
X72218000Y-58500000D03*
X74250000Y-58500000D03*
X75452000Y-58500000D03*
X71202000Y-58500000D03*
X76468000Y-58500000D03*
X73234000Y-58500000D03*
X78500000Y-58500000D03*
X68984000Y-58500000D03*
X63718000Y-58500000D03*
X65750000Y-58500000D03*
X66952000Y-58500000D03*
X62702000Y-58500000D03*
X67968000Y-58500000D03*
X64734000Y-58500000D03*
X70000000Y-58500000D03*
X58452000Y-58500000D03*
X59468000Y-58500000D03*
X60484000Y-58500000D03*
X61500000Y-58500000D03*
X54202000Y-58500000D03*
X55218000Y-58500000D03*
X56234000Y-58500000D03*
X57250000Y-58500000D03*
X81452000Y-54500000D03*
X82468000Y-54500000D03*
X83484000Y-54500000D03*
X84500000Y-54500000D03*
X81452000Y-50000000D03*
X82468000Y-50000000D03*
X83484000Y-50000000D03*
X84500000Y-50000000D03*
X54202000Y-54500000D03*
X55218000Y-54500000D03*
X56234000Y-54500000D03*
X57250000Y-54500000D03*
X54202000Y-49750000D03*
X55218000Y-49750000D03*
X56234000Y-49750000D03*
X57250000Y-49750000D03*
X64555000Y-39370000D03*
X61214000Y-53340000D03*
X83058000Y-56320000D03*
X78486000Y-51054000D03*
X67564000Y-50800000D03*
X64555000Y-40640000D03*
X83058000Y-47820000D03*
X60198000Y-53340000D03*
X79502000Y-51054000D03*
X55626000Y-47820000D03*
X69596000Y-53340000D03*
X78232000Y-53594000D03*
X62230000Y-50800000D03*
X55626000Y-56320000D03*
X76962000Y-53594000D03*
X79502000Y-53594000D03*
X61214000Y-50800000D03*
X68326000Y-49276000D03*
X71628000Y-53848000D03*
X62230000Y-53340000D03*
X69596000Y-50800000D03*
X65024000Y-53340000D03*
X73406000Y-50800000D03*
X60198000Y-50800000D03*
X59182000Y-53340000D03*
X67564000Y-53340000D03*
X66294000Y-45212000D03*
X67564000Y-41910000D03*
X70612000Y-50800000D03*
X77470000Y-49530000D03*
X72898000Y-53848000D03*
X74422000Y-50800000D03*
X68580000Y-53340000D03*
X59182000Y-50800000D03*
X74422000Y-53594000D03*
X65024000Y-52070000D03*
X68580000Y-50800000D03*
X70358000Y-53848000D03*
X77470000Y-51054000D03*
X72390000Y-50800000D03*
X76454000Y-51054000D03*
X75692000Y-53594000D03*
%TD*%
%TA.AperFunction,Conductor*%
%TO.N,GND*%
G36*
X85802539Y-34048185D02*
G01*
X85848294Y-34100989D01*
X85859500Y-34152500D01*
X85859500Y-59065500D01*
X85839815Y-59132539D01*
X85787011Y-59178294D01*
X85735500Y-59189500D01*
X52948500Y-59189500D01*
X52881461Y-59169815D01*
X52835706Y-59117011D01*
X52824500Y-59065500D01*
X52824500Y-34152500D01*
X52844185Y-34085461D01*
X52896989Y-34039706D01*
X52948500Y-34028500D01*
X85735500Y-34028500D01*
X85802539Y-34048185D01*
G37*
%TD.AperFunction*%
%TD*%
M02*
